<?xml version="1.0" encoding="utf-8"?>
<!-- Generator: Adobe Illustrator 18.0.0, SVG Export Plug-In . SVG Version: 6.00 Build 0)  -->
<!DOCTYPE svg PUBLIC "-//W3C//DTD SVG 1.1//EN" "http://www.w3.org/Graphics/SVG/1.1/DTD/svg11.dtd">
<svg version="1.1" id="Layer_1" xmlns="http://www.w3.org/2000/svg" xmlns:xlink="http://www.w3.org/1999/xlink" x="0px" y="0px"
	 viewBox="0 0 22.2 22.2" enable-background="new 0 0 22.2 22.2" xml:space="preserve">
<g>
	<path fill="#E4AD2A" d="M22.2,3.7c0-1.9-1.8-3.7-3.7-3.7H3.7C1.8,0,0,1.8,0,3.7v14.8c0,1.9,1.8,3.7,3.7,3.7h7.4v-8.4H8.4v-3.7h2.7
		V8.7c0-2.5,1.9-4.7,4.2-4.7h3v3.7h-3c-0.3,0-0.7,0.4-0.7,1v1.5h3.7v3.7h-3.7v8.4h3.9c1.9,0,3.7-1.8,3.7-3.7V3.7z M22.2,3.7"/>
</g>
</svg>
