<?xml version="1.0" encoding="utf-8"?>
<!-- Generator: Adobe Illustrator 18.0.0, SVG Export Plug-In . SVG Version: 6.00 Build 0)  -->
<!DOCTYPE svg PUBLIC "-//W3C//DTD SVG 1.1//EN" "http://www.w3.org/Graphics/SVG/1.1/DTD/svg11.dtd">
<svg version="1.1" id="Layer_1" xmlns="http://www.w3.org/2000/svg" xmlns:xlink="http://www.w3.org/1999/xlink" x="0px" y="0px"
	 viewBox="0 0 37.3 37.2" enable-background="new 0 0 37.3 37.2" xml:space="preserve">
<path fill="#992231" d="M36.4,29.4l-5.8-5.8c-1.1-1.1-3-1.1-4.2,0.1l-2.9,2.9c-0.2-0.1-0.4-0.2-0.6-0.3c-1.8-1-4.3-2.4-7-5
	c-2.6-2.6-4-5.2-5.1-7c-0.1-0.2-0.2-0.4-0.3-0.6l1.9-1.9l1-1c1.2-1.2,1.2-3.1,0.1-4.2L7.9,0.8c-1.1-1.1-3-1.1-4.2,0.1L2,2.5l0,0
	C1.5,3.3,1,4.1,0.7,4.9C0.4,5.8,0.2,6.6,0.1,7.3c-0.8,6.3,2.1,12.1,9.9,19.9c10.8,10.8,19.5,10,19.9,9.9c0.8-0.1,1.6-0.3,2.4-0.6
	c0.9-0.3,1.7-0.8,2.3-1.3l0,0l1.6-1.6C37.5,32.5,37.6,30.6,36.4,29.4L36.4,29.4z"/>
</svg>
