<?xml version="1.0" encoding="utf-8"?>
<!-- Generator: Adobe Illustrator 18.0.0, SVG Export Plug-In . SVG Version: 6.00 Build 0)  -->
<!DOCTYPE svg PUBLIC "-//W3C//DTD SVG 1.1//EN" "http://www.w3.org/Graphics/SVG/1.1/DTD/svg11.dtd">
<svg version="1.1" id="Layer_1" xmlns="http://www.w3.org/2000/svg" xmlns:xlink="http://www.w3.org/1999/xlink" x="0px" y="0px"
	 viewBox="0 0 35.9 29.2" enable-background="new 0 0 35.9 29.2" xml:space="preserve">
<g>
	<path fill="#992231" d="M10.7,16.8c0,4,3.3,7.3,7.3,7.3c4,0,7.3-3.3,7.3-7.3c0-4-3.3-7.3-7.3-7.3C13.9,9.5,10.7,12.8,10.7,16.8
		L10.7,16.8z M33.7,4.5h-7.9C25.2,2.2,24.7,0,22.4,0h-9c-2.2,0-2.8,2.2-3.4,4.5H2.2C1,4.5,0,5.5,0,6.7v20.2c0,1.2,1,2.2,2.2,2.2
		h31.4c1.2,0,2.2-1,2.2-2.2V6.7C35.9,5.5,34.9,4.5,33.7,4.5L33.7,4.5z M18,26.8c-5.5,0-10-4.5-10-10c0-5.5,4.5-10,10-10
		c5.5,0,10,4.5,10,10C27.9,22.3,23.5,26.8,18,26.8L18,26.8z M33.7,11.2h-4.5V9h4.5V11.2z M33.7,11.2"/>
</g>
</svg>
