<?xml version="1.0" encoding="utf-8"?>
<!-- Generator: Adobe Illustrator 18.0.0, SVG Export Plug-In . SVG Version: 6.00 Build 0)  -->
<!DOCTYPE svg PUBLIC "-//W3C//DTD SVG 1.1//EN" "http://www.w3.org/Graphics/SVG/1.1/DTD/svg11.dtd">
<svg version="1.1" id="Layer_1" xmlns="http://www.w3.org/2000/svg" xmlns:xlink="http://www.w3.org/1999/xlink" x="0px" y="0px"
	 viewBox="0 0 41.1 39.8" enable-background="new 0 0 41.1 39.8" xml:space="preserve">
<path fill="#992231" d="M40.6,19.4c0.7-0.8,0.7-2.1-0.2-2.8L22.1,0.5c-0.8-0.7-2.2-0.7-3,0L0.6,17.5c-0.8,0.7-0.9,2-0.1,2.8L1,20.8
	c0.8,0.8,2,0.9,2.8,0.2l1.4-1.2v18.1c0,1.1,0.9,2,2,2h7.2c1.1,0,2-0.9,2-2V25.2h9.2v12.6c0,1.1,0.8,2,1.9,2H35c1.1,0,2-0.9,2-2V20
	c0,0,0.4,0.3,0.9,0.7c0.5,0.4,1.5,0.1,2.2-0.7L40.6,19.4z M40.6,19.4"/>
</svg>
