<?xml version="1.0" encoding="utf-8"?>
<!-- Generator: Adobe Illustrator 18.0.0, SVG Export Plug-In . SVG Version: 6.00 Build 0)  -->
<!DOCTYPE svg PUBLIC "-//W3C//DTD SVG 1.1//EN" "http://www.w3.org/Graphics/SVG/1.1/DTD/svg11.dtd">
<svg version="1.1" id="Layer_1" xmlns="http://www.w3.org/2000/svg" xmlns:xlink="http://www.w3.org/1999/xlink" x="0px" y="0px"
	 viewBox="0 0 24 24" enable-background="new 0 0 24 24" xml:space="preserve">
<g>
	<path fill-rule="evenodd" clip-rule="evenodd" fill="#E4AD2A" d="M3.1,0h17.8C22.6,0,24,1.3,24,3.1v17.8c0,1.8-1.4,3.1-3.1,3.1H3.1
		C1.4,24,0,22.7,0,20.9V3.1C0,1.3,1.4,0,3.1,0L3.1,0z M17.5,2.7c-0.6,0-1.1,0.5-1.1,1.1v2.6c0,0.6,0.5,1.1,1.1,1.1h2.7
		c0.6,0,1.1-0.5,1.1-1.1V3.7c0-0.6-0.5-1.1-1.1-1.1H17.5z M21.3,10.1h-2.1c0.2,0.7,0.3,1.3,0.3,2.1c0,4-3.3,7.2-7.5,7.2
		c-4.1,0-7.5-3.2-7.5-7.2c0-0.7,0.1-1.4,0.3-2.1H2.7v10.1c0,0.5,0.4,1,1,1h16.7c0.5,0,1-0.4,1-1V10.1z M12,7.3
		c-2.7,0-4.8,2.1-4.8,4.7s2.2,4.7,4.8,4.7c2.7,0,4.8-2.1,4.8-4.7S14.7,7.3,12,7.3L12,7.3z M12,7.3"/>
</g>
</svg>
