<?xml version="1.0" encoding="utf-8"?>
<!-- Generator: Adobe Illustrator 18.0.0, SVG Export Plug-In . SVG Version: 6.00 Build 0)  -->
<!DOCTYPE svg PUBLIC "-//W3C//DTD SVG 1.1//EN" "http://www.w3.org/Graphics/SVG/1.1/DTD/svg11.dtd">
<svg version="1.1" id="Layer_1" xmlns="http://www.w3.org/2000/svg" xmlns:xlink="http://www.w3.org/1999/xlink" x="0px" y="0px"
	 viewBox="0 0 876 4" enable-background="new 0 0 876 4" xml:space="preserve">
<g>
	<path fill="#151519" d="M0,2c0,0,13.7-0.1,37.6-0.4c12-0.1,26.5-0.2,43.2-0.4c16.7-0.1,35.5-0.2,56-0.4c20.5-0.1,42.8-0.2,66.3-0.3
		c23.5-0.1,48.3-0.3,74-0.3C328.5,0.2,383.3,0.1,438,0c54.8,0.1,109.5,0.2,160.8,0.3c25.7,0,50.5,0.2,74,0.3
		c23.5,0.1,45.8,0.2,66.3,0.3c20.5,0.1,39.4,0.2,56,0.4c16.7,0.1,31.2,0.3,43.2,0.4C862.3,1.9,876,2,876,2s-13.7,0.1-37.6,0.4
		c-12,0.1-26.5,0.2-43.2,0.4c-16.7,0.1-35.5,0.3-56,0.4c-20.5,0.1-42.8,0.2-66.3,0.3c-23.5,0.1-48.3,0.3-74,0.3
		C547.5,3.8,492.8,3.9,438,4c-54.8-0.1-109.5-0.2-160.8-0.3c-25.7,0-50.5-0.2-74-0.3c-23.5-0.1-45.8-0.2-66.3-0.3
		c-20.5-0.1-39.4-0.3-56-0.4C64.2,2.6,49.6,2.5,37.6,2.4C13.7,2.1,0,2,0,2z"/>
</g>
</svg>
