<?xml version="1.0" encoding="utf-8"?>
<!-- Generator: Adobe Illustrator 18.0.0, SVG Export Plug-In . SVG Version: 6.00 Build 0)  -->
<!DOCTYPE svg PUBLIC "-//W3C//DTD SVG 1.1//EN" "http://www.w3.org/Graphics/SVG/1.1/DTD/svg11.dtd">
<svg version="1.1" id="Layer_1" xmlns="http://www.w3.org/2000/svg" xmlns:xlink="http://www.w3.org/1999/xlink" x="0px" y="0px"
	 viewBox="0 0 332.3 273.6" enable-background="new 0 0 332.3 273.6" xml:space="preserve">
<g>
	<polygon fill="#C18B2C" points="97.6,133.6 233.2,135.8 236.4,97.2 100.6,94.1 	"/>
	<polygon fill="#E4AD2A" points="0,116.4 8,130.4 5.4,151.7 102.7,117.9 101.7,83.6 	"/>
	<polygon fill="#E4AD2A" points="332.3,127.1 323.3,140.6 324.4,162 229.8,121.4 233.2,87.2 	"/>
	<polygon fill="#CC9A31" points="97.6,133.6 102.7,117.9 98.7,119.3 	"/>
	<polygon fill="#CC9A31" points="233.2,135.8 229.8,121.4 234.3,123.2 	"/>
	<path fill-rule="evenodd" clip-rule="evenodd" fill="#C18B2C" d="M50.5,68.2c-1.3-3.3-1.8-7.9-1.3-11.5
		C51.1,60.9,52.8,63.5,50.5,68.2 M44.7,80.1c-0.3,1.9-0.8,3.6-0.4,6.6c0.8,5.7,4.8,8.3,7.5,12.5c0.7,1.3,1.4,2.5,2,3.8
		c0.6,1.2,1.4,3.4,0.2-0.1c-1.1-2.9-2.4-5.3-4.7-8.2c-1.4-1.7-2.8-3.5-3.7-5.7C44.5,86.2,44.7,83.2,44.7,80.1 M53.6,60.9
		c-0.8,1.5-1.7,2.8-2.2,5.5c-1.1,5.1,1.3,8.6,1.9,13.4c0.2,1.8,0.4,3.7,0.4,5.6c0,0.4,0.1,0.7,0.1,0c0.1-3.6,0-6.4-1.1-10.3
		c-0.5-2-1-4-1.1-6.2C51.7,66.1,52.7,63.6,53.6,60.9 M61.3,28.7c-0.4-2.2,0.1-4.9,0.8-7.5c0.9-2.9,2.5-6.2,4.1-8.8
		c-0.2,3.5-1,7.4-2.2,10.7C63.4,25,62.5,26.8,61.3,28.7 M63.2,29.3c0.6-2.2,2-4.5,3.6-6.5c1.9-2.3,4.6-4.5,7.1-6.1
		c-1.5,3.1-3.8,6.3-6.1,8.7C66.5,26.9,65,28.2,63.2,29.3 M66.1,21.7c0.3-2.5,1.5-5.3,3.1-7.7c1.8-2.8,4.4-5.8,6.9-7.9
		c-1.3,3.7-3.3,7.6-5.5,10.6C69.3,18.5,67.8,20.1,66.1,21.7 M57.8,36.5c-1-3.6,1.1-9.5,2.5-12.7c0-0.1,0.1-0.2,0.1-0.2
		c0.1-0.3,0,2.9-0.1,5.9C60.1,32.4,60.1,34.6,57.8,36.5 M59.9,37.3c4.2-1.8,5.4-6.8,7.8-10.2C67.8,26.9,59.9,32.3,59.9,37.3
		 M57.4,45.1c0.3-2.8,0.7-4.3,3.4-6.6c1-0.9,2.2-1.6,3.1-2.4c-1.3,2.5-2.6,5.6-4.6,7.6C58.8,44.3,58.2,44.7,57.4,45.1 M55.5,44.1
		c-0.3-2-0.8-3.9-0.7-5.8c0.1-2.3,1.2-4.5,2-6.6c-0.1,2.2,0.3,5.3,0.5,7.3C57.4,40.8,56.5,42.6,55.5,44.1 M53.9,52.5
		c-1.2-0.6-1.5-2.4-1.6-4.3c0-2.6,0.5-5.9,1.4-8.4c-0.1,1.6-0.2,3.2,0.4,5C55,47.9,54.3,49.5,53.9,52.5 M55.6,53.2
		c-0.6-1.1-0.3-2.5,0.3-3.8c1.1-2.4,3.4-3.5,5.1-5.5c-0.3,0.7-0.6,1.5-0.9,2.2C58.9,49,57.9,51.4,55.6,53.2 M53.8,60.7
		c0.2-2.1,0.7-4.1,2.1-5.7c1-1.2,2.2-2.3,2.9-3.6c-0.2,1.5-0.4,3-1.2,4.8C56.6,58.1,55.2,59.4,53.8,60.7 M52,60.6
		c-1.2-3.4-1.5-8-0.8-11.6C52.9,53.3,54.5,56,52,60.6 M40.7,44.1c-1.3-2.1-1.9-5-2-7.9c-0.1-3.4,0.3-7.4,1.2-10.8
		c1.1,3.6,1.8,7.9,1.7,11.7C41.6,39.4,41.3,41.7,40.7,44.1 M43.1,43.8c-0.3-2.5,0.5-5.4,1.6-8.2c1.3-3.2,3.4-6.7,5.6-9.5
		c-0.5,3.8-1.8,8.1-3.4,11.7C45.9,39.9,44.7,41.9,43.1,43.8 M43.3,34.8c-0.7-2.7-0.3-6,0.5-9.2c1-3.7,2.8-7.9,4.7-11.3
		c0,4.3-0.7,9.2-2,13.3C45.8,30.1,44.7,32.4,43.3,34.8 M39.8,53.6c-2.5-3.1-2.5-10-2.2-13.9c0-0.1,0-0.2,0-0.3c0-0.3,1.2,2.9,2.2,6
		C40.8,48.4,41.7,50.6,39.8,53.6 M42.5,53.4c4.1-3.9,3.4-9.4,4.8-14C47.4,39.2,40.5,48.5,42.5,53.4 M42.7,62.4
		c-0.8-2.9-1-4.6,1.3-8.2c0.8-1.4,1.8-2.7,2.6-3.9c-0.5,3.2-0.8,6.9-2.2,9.9C44,60.9,43.5,61.6,42.7,62.4 M40.2,62.4
		c-1.1-1.8-2.4-3.5-3.1-5.4c-0.8-2.3-0.4-5-0.3-7.5c0.7,2.3,2.4,5.2,3.4,7C41,58.2,40.8,60.4,40.2,62.4 M41.7,71.5
		c-1.6,0-2.7-1.7-3.5-3.5c-1.1-2.6-1.8-6.1-1.8-9c0.5,1.6,1.1,3.3,2.4,4.8C41.2,66.3,40.9,68.4,41.7,71.5 M44,71.4
		c-1.1-0.8-1.4-2.4-1.2-3.9c0.3-3,2.5-5.2,3.6-7.9c0,0.9-0.1,1.7-0.1,2.6C46.1,65.6,45.8,68.5,44,71.4 M44.9,79.7
		c-0.6-2.2-0.8-4.5,0.1-6.7c0.7-1.6,1.6-3.3,1.9-5c0.4,1.6,0.7,3.2,0.5,5.4C46.9,75.8,45.9,77.8,44.9,79.7 M42.8,80.5
		c-2.7-2.8-4.9-7.3-5.6-11.2C40.9,72.8,43.8,74.8,42.8,80.5 M46.1,88c-0.7-2.1-1-4.4-0.2-6.7c0.6-1.7,1.5-3.4,1.7-5.1
		c0.5,1.5,0.9,3.1,0.7,5.3C48.1,84,47.1,86,46.1,88 M44,88.9c-2.8-2.7-5.2-7-6-10.9C41.8,81.2,44.9,83.1,44,88.9 M52.3,68.1
		c0.1-2.1,0.6-4.1,1.9-5.7c0.9-1.2,2.2-2.4,2.8-3.7c-0.1,1.5-0.3,3-1.1,4.8C55,65.4,53.7,66.8,52.3,68.1"/>
	<path fill-rule="evenodd" clip-rule="evenodd" fill="#C18B2C" d="M280.9,73c-2.2-4.7-0.3-7.3,1.8-11.4
		C283,65.2,282.3,69.7,280.9,73 M286.1,85.2c-0.2,3.1-0.1,6.1-1.4,8.8c-1,2.2-2.4,3.9-3.9,5.6c-2.5,2.8-3.9,5.1-5.1,8
		c-1.3,3.5-0.4,1.3,0.2,0.1c0.6-1.3,1.4-2.5,2.2-3.8c2.9-4,7-6.4,8.1-12.1C286.8,88.8,286.4,87.1,286.1,85.2 M278.1,65.6
		c0.7,2.7,1.7,5.3,1.5,8c-0.1,2.2-0.7,4.2-1.3,6.2c-1.2,3.9-1.5,6.6-1.5,10.2c0,0.7,0.1,0.4,0.1,0c0.1-1.9,0.4-3.7,0.7-5.5
		c0.9-4.7,3.4-8.2,2.5-13.3C279.6,68.4,278.8,67.2,278.1,65.6 M271.7,33.1c-1.1-1.9-1.9-3.8-2.5-5.7c-1-3.3-1.7-7.3-1.7-10.7
		c1.5,2.6,3,6,3.7,9C271.9,28.2,272.2,30.9,271.7,33.1 M269.8,33.6c-1.7-1.2-3.2-2.5-4.5-4c-2.2-2.5-4.3-5.8-5.7-9
		c2.4,1.7,5,4.1,6.8,6.4C268,29.1,269.3,31.4,269.8,33.6 M267.3,25.9c-1.7-1.6-3.1-3.3-4.4-5.2c-2.1-3.2-3.9-7.2-5-10.9
		c2.4,2.3,4.9,5.3,6.6,8.2C266,20.6,267.1,23.3,267.3,25.9 M274.9,41c-2.2-2-2.1-4.2-2.1-7.1c0-3,0.1-6.2,0.1-5.9
		c0,0.1,0,0.2,0.1,0.2C274.2,31.5,276,37.5,274.9,41 M272.7,41.7c0.3-4.9-7.5-10.7-7.4-10.6C267.7,34.7,268.6,39.7,272.7,41.7
		 M274.9,49.7c-0.8-0.5-1.4-0.9-1.8-1.4c-1.9-2.1-3-5.2-4.3-7.8c0.9,0.8,2,1.6,3,2.5C274.5,45.3,274.8,46.9,274.9,49.7 M276.9,48.8
		c-0.9-1.5-1.7-3.4-1.5-5.1c0.3-2,0.8-5,0.8-7.2c0.7,2.1,1.8,4.4,1.7,6.6C277.8,44.9,277.3,46.8,276.9,48.8 M278.1,57.2
		c-0.2-3-0.9-4.7,0.2-7.6c0.6-1.8,0.7-3.4,0.6-5c0.8,2.5,1.1,5.8,1,8.4C279.8,54.8,279.3,56.7,278.1,57.2 M276.4,57.9
		c-2.2-2-3.1-4.4-4.2-7.3c-0.3-0.8-0.5-1.5-0.8-2.3c1.6,2,3.8,3.2,4.9,5.7C276.8,55.4,277,56.8,276.4,57.9 M277.8,65.4
		c-1.3-1.3-2.6-2.7-3.6-4.7c-0.7-1.8-0.9-3.4-1-4.8c0.7,1.4,1.8,2.5,2.8,3.7C277.3,61.2,277.8,63.3,277.8,65.4 M279.6,65.4
		c-2.3-4.7-0.5-7.3,1.3-11.6C281.5,57.4,281,62,279.6,65.4 M291.7,49.4c-0.5-2.4-0.7-4.7-0.6-7c0.1-3.8,1-8.1,2.2-11.6
		c0.7,3.4,1,7.5,0.7,10.8C293.8,44.5,293,47.4,291.7,49.4 M289.3,49c-1.5-2-2.6-4.1-3.5-6.2c-1.5-3.6-2.6-8-2.9-11.8
		c2,2.8,4,6.5,5.2,9.7C289,43.6,289.6,46.6,289.3,49 M289.5,40c-1.3-2.4-2.2-4.8-2.9-7.3c-1.1-4.2-1.6-9.1-1.4-13.4
		c1.8,3.4,3.5,7.7,4.3,11.5C290.1,34,290.2,37.4,289.5,40 M292.1,58.9c-1.7-3.1-0.7-5.2,0.4-8.2c1.1-3,2.5-6.2,2.5-5.9
		c0,0.1,0,0.2,0,0.3C295.1,49.1,294.8,55.9,292.1,58.9 M289.4,58.6c2.2-4.8-4.3-14.4-4.2-14.2C286.5,49.1,285.5,54.5,289.4,58.6
		 M288.8,67.6c-0.8-0.9-1.2-1.6-1.5-2.3c-1.3-3-1.4-6.8-1.8-9.9c0.7,1.2,1.6,2.6,2.4,4C290,63.1,289.7,64.8,288.8,67.6 M291.4,67.7
		c-0.5-2-0.7-4.2,0.3-5.9c1.1-1.8,2.9-4.6,3.7-6.9c0,2.5,0.3,5.2-0.6,7.5C293.9,64.3,292.6,65.9,291.4,67.7 M289.5,76.7
		c0.9-3.1,0.8-5.1,3.2-7.6c1.4-1.5,2.1-3.1,2.6-4.7c-0.1,2.9-1,6.4-2.2,8.9C292.3,75.2,291,76.8,289.5,76.7 M287.2,76.6
		c-1.7-3.1-1.8-5.9-1.9-9.3c0-0.9,0-1.8,0-2.6c1,2.8,3.1,5.1,3.3,8.1C288.7,74.3,288.4,75.8,287.2,76.6 M286,84.8
		c-1-2-1.9-4-2.2-6.4c-0.1-2.2,0.3-3.8,0.7-5.4c0.2,1.7,1.1,3.4,1.7,5.1C287,80.4,286.7,82.7,286,84.8 M288,85.7
		c-0.8-5.8,2.2-7.6,6-11C293.2,78.6,290.8,83,288,85.7 M284.4,93c-0.9-2-1.8-4.1-2-6.5c0-2.2,0.4-3.8,0.9-5.3c0.2,1.7,1,3.5,1.5,5.1
		C285.5,88.6,285.2,90.9,284.4,93 M286.4,94c-0.6-5.8,2.5-7.5,6.5-10.6C291.9,87.2,289.3,91.4,286.4,94 M279,72.9
		c-1.3-1.4-2.5-2.8-3.4-4.8c-0.7-1.9-0.8-3.4-0.8-4.9c0.6,1.4,1.8,2.6,2.7,3.8C278.6,68.8,279,70.8,279,72.9"/>
	<g>
		<path fill="#2A2A35" d="M270.6,114.7l0.1-0.2l-4.6-6.5l-7.4,1.8l1.2,3.3l6.8-1.7c0.4,1,0.4,1.9-0.1,2.9c-0.3,0.7-0.8,1.4-1.3,1.9
			c-0.6,0.5-1.3,1-2.1,1.4c-0.6,0.3-1.6,0.6-3.1,1c-1.5,0.4-2.6,0.8-3.3,1.2c-1,0.5-1.9,1-2.6,1.7c-0.6,0.5-0.9,1-1.1,1.4
			c-0.1,0.2-0.1,0.3-0.1,0.5c0,0.2,0.2,0.3,0.3,0.4c0.1,0.1,0.3,0.1,0.8,0.1c1.6,0.1,3.1,0.3,4.3,0.9c0.6,0.3,1.3,0.6,1.9,1.1
			c0.3,0.2,0.9,0.7,2.2,1.9l0.2,0.2l3.9-1.8l-2.1-1.9c-0.3-0.2-0.8-0.6-1.4-0.9c-0.6-0.4-1.2-0.7-1.9-1c-0.7-0.3-1.5-0.6-2.4-0.7
			c-0.5-0.1-1-0.1-1.5-0.2c0.2-0.1,0.3-0.1,0.5-0.2c0.6-0.2,1.6-0.4,3-0.5c3.3-0.4,5.4-0.9,6.6-1.5c1.2-0.7,2.1-1.8,2.8-3.2
			C270.3,115.6,270.5,115.2,270.6,114.7"/>
		<path fill="#2A2A35" d="M279.2,113.8l-0.1-0.1l-0.2,0c-2.1,0.2-4.1,0.9-5.9,2.2c-1.8,1.3-3.1,2.9-3.9,4.7
			c-0.6,1.3-0.8,2.7-0.8,4.1c0,1.4,0.3,2.8,1,4c0.6,1.2,1.5,2.3,2.6,3.1l0.1,0.1l0.2,0c2.1-0.4,4.1-1.1,5.7-2.3
			c1.7-1.2,2.9-2.7,3.8-4.7c0.8-2,1.1-4,0.6-5.9C281.9,117,280.8,115.3,279.2,113.8 M271.8,123.3c-0.1-1.3,0.2-2.6,0.7-3.8
			c0.7-1.6,1.8-2.9,3.3-3.6c1,0.9,1.8,1.8,2.3,2.9c0.6,1.1,0.9,2.3,0.9,3.5c0,1.2-0.2,2.4-0.7,3.6c-0.3,0.8-0.8,1.5-1.3,2.1
			c-0.5,0.5-1.1,1-1.9,1.5c-0.9-0.6-1.6-1.4-2.2-2.4C272.2,125.9,271.9,124.6,271.8,123.3"/>
		<path fill="#2A2A35" d="M291.2,119l-0.2-0.2l-4.8,1.5l0.4,1.3l0.4-0.1c0.2,0,0.4-0.1,0.6-0.2c0.3-0.1,0.4-0.1,0.6-0.1
			c0,0,0.1,0,0.2,0.3c0.1,0.3,0.2,0.6,0.2,1c0,0.2-0.1,0.5-0.4,1.2l-3.9,9.2l-1.5,0.9l2.5,3.9l5.1-1.4l-0.5-1.3l-1.9,0.5
			c-0.2-0.5-0.3-0.8-0.4-0.9c0,0,0-0.2,0.1-0.5l4.4-10.4c0.4-0.9,0.5-1.7,0.4-2.5C292.2,120.4,291.8,119.7,291.2,119"/>
		<path fill="#2A2A35" d="M305.8,140l0.6-3.2l-2.5-1.1l2.6-6.1c0.4-1,0.5-1.9,0.3-2.6c-0.2-0.8-0.6-1.4-1.3-1.8l-0.2-0.1l-11.1,6.5
			l-0.6,3.1l5.7,2.5l-0.9,2.1l-1.5,0.9l2.5,3.7l4.7-1.4l-0.4-1.4l-1,0.3c-0.1,0-0.2,0-0.2,0c0,0-0.1-0.1-0.3-0.3l-0.4-0.5l0.8-2
			L305.8,140z M296,132.3l6.9-4.1c0,0.1,0,0.2,0,0.3c0,0.2-0.1,0.6-0.3,1l-2,4.8L296,132.3z"/>
	</g>
	<g>
		<path fill="#2A2A35" d="M39.9,120.7l1.3-3.5c0.3-0.7,0.4-1.3,0.5-1.7c0-0.5,0-0.9-0.1-1.3c-0.1-0.5-0.4-0.8-0.7-1
			c-0.4-0.2-0.7-0.3-1.1-0.2c-0.2,0.1-0.5,0.2-0.6,0.6c-0.1,0.3-0.1,0.6,0,1c0.1,0.4,0.5,0.7,1,1c0.1,0.1,0.2,0.1,0.2,0.1
			c0,0.1-0.1,0.3-0.1,0.4c-0.1,0.2-0.4,0.4-0.8,0.5c-0.4,0.1-0.8,0.2-1.3,0.2c-0.7,0-1.7,0-2.9-0.1l-0.3,0l-0.1,0.3
			c-0.3,0.7-0.6,1.3-0.9,1.7c-0.4,0.5-0.9,1-1.7,1.5l-0.2,0.2l1.7,5.3l3,0.6l-0.8,2.3l-0.7,1.8c-0.1,0.4-0.3,0.6-0.3,0.7
			c-0.2,0.3-0.2,0.6-0.2,0.8c0.1,0.2,0.2,0.4,0.4,0.5c0.1,0.1,0.3,0.1,0.4,0.1c0.1,0,0.2,0,0.3,0c0.2-0.1,0.4-0.2,0.6-0.6
			c0.4-0.6,1-1,1.7-1.3c0.5-0.2,1-0.2,1.4-0.2l0.2,0c0.4,0,1,0.1,1.6,0.2l0.3,0.1l0.1-0.3c0.5-0.9,1-1.5,1.4-2
			c0.5-0.4,1-0.8,1.6-1.1l0.3-0.1l-1.9-6L39.9,120.7z M38.4,127.3c-0.3,0.1-0.6,0.2-0.9,0.4c0,0,0,0,0,0l1.3-3.7l1.6,0.3l0.9,2.9
			C40.2,127,39.3,127,38.4,127.3 M38.3,119.9c0.2-0.1,0.4-0.1,0.5-0.2l-1.1,3.3l-1.4-0.3l-0.8-2.7C36.4,120.2,37.4,120.2,38.3,119.9
			"/>
		<path fill="#2A2A35" d="M52.9,123.9l-2.8-0.2l-0.6-1.9l4.6-6.1l-5.5-3.5l-0.2,0.2c-1.2,1.2-1.9,1.9-2.2,2.2
			c-0.4,0.4-1,0.9-1.7,1.4l-0.2,0.2l2.4,7.6c0.3,1,0.4,1.4,0.3,1.5c0,0.2-0.1,0.4-0.3,0.6l-0.2,0.2l0.3,0.8l0.3,0
			c1-0.1,1.9-0.1,2.5-0.1c0.6,0,1.4,0.1,2.3,0.3l0.2,0l3.6-4.7l-1-0.8L52.9,123.9z M47.6,115.6l3.2,1.9l-1.9,2.5L47.6,115.6z"/>
		<polygon fill="#2A2A35" points="56.4,108.9 57.5,104.6 54.9,105.5 55.2,109.3 		"/>
		<path fill="#2A2A35" d="M61.6,120.5c-0.3,0.5-0.4,0.6-0.4,0.7c0,0-0.1,0-0.2-0.1c-0.1,0-0.2-0.3-0.5-1.2l-2.1-6.8l0.8-1.5
			l-3.6-1.5l-2.1,3.3L55,114l2.2,7c0.4,1.1,0.7,1.9,1.1,2.3c0.4,0.4,1,0.8,1.9,1.1l0.3,0.1l2.4-3.7l-1.1-0.8L61.6,120.5z"/>
		<path fill="#2A2A35" d="M69.7,117.6l-0.7,1l-1.3-0.4l-2.5-8.1l2.6-0.8l-0.7-2.2l-2.5,0.8l-1-3.6l-0.9,0.3l-2.3,5.9l0.3,1.1
			l1.2-0.4l2.2,7c0.2,0.5,0.2,1,0.2,1.3c0,0.2-0.1,0.5-0.4,0.7l-0.1,0.2L64,121l0.3,0c1.2,0,2.5,0.3,3.7,0.9l0.3,0.2l2.5-3.8
			L69.7,117.6z"/>
	</g>
	<path fill="#E4AD2A" d="M220.9,188.5c-0.8,3.7-2.2,6.6-4.3,8.7c-1.9,2-5.1,3-9.3,3c-3.5,0-4.7-0.4-5.1-0.6c-0.8-0.4-1-0.7-1-0.7
		c0-0.1-0.3-0.9-0.3-3.9v-31.8c0-2.6,0.5-3.6,0.7-3.8c0,0,0.6-0.7,3.6-0.7h3.4v-9.2h-34.4v9.2h3.1c2.4,0,3.4,0.5,3.6,0.7
		c0.2,0.2,0.7,1.1,0.7,3.8v32.9c0,2.6-0.5,3.5-0.7,3.8c0,0-0.6,0.7-3.7,0.7h-3.1v9.2h55.4l0.3-23.1h-8.6L220.9,188.5z"/>
	<path fill="none" stroke="#2A2A35" stroke-linecap="round" stroke-linejoin="round" stroke-miterlimit="10" d="M220.9,188.5
		c-0.8,3.7-2.2,6.6-4.3,8.7c-1.9,2-5.1,3-9.3,3c-3.5,0-4.7-0.4-5.1-0.6c-0.8-0.4-1-0.7-1-0.7c0-0.1-0.3-0.9-0.3-3.9v-31.8
		c0-2.6,0.5-3.6,0.7-3.8c0,0,0.6-0.7,3.6-0.7h3.4v-9.2h-34.4v9.2h3.1c2.4,0,3.4,0.5,3.6,0.7c0.2,0.2,0.7,1.1,0.7,3.8v32.9
		c0,2.6-0.5,3.5-0.7,3.8c0,0-0.6,0.7-3.7,0.7h-3.1v9.2h55.4l0.3-23.1h-8.6L220.9,188.5z"/>
	<path fill="#E4AD2A" d="M294.9,200.6c-0.8,0-1.8-0.3-2.8-0.9c-0.2-0.1-1.6-1.2-3.8-6.6l-18-44.6h-8l-17.7,44.6
		c-1.4,3.4-3.6,7.5-6.7,7.5h-2.3v9.2h23v-9.2h-2.3c-2.3,0-3.1-0.4-3.3-0.5c-0.2-0.1-0.2-0.5-0.2-0.8c0-0.1,0-0.8,1-3.3l0.5-1.3h14
		l1.6,4c0.5,1.1,0.5,1.5,0.6,1.5c0,0-0.7,0.3-3.3,0.3H265v9.2h32.3v-9.2H294.9z M264.7,185.4H258l3.2-8.2L264.7,185.4z"/>
	<path fill="none" stroke="#2A2A35" stroke-linecap="round" stroke-linejoin="round" stroke-miterlimit="10" d="M294.9,200.6
		c-0.8,0-1.8-0.3-2.8-0.9c-0.2-0.1-1.6-1.2-3.8-6.6l-18-44.6h-8l-17.7,44.6c-1.4,3.4-3.6,7.5-6.7,7.5h-2.3v9.2h23v-9.2h-2.3
		c-2.3,0-3.1-0.4-3.3-0.5c-0.2-0.1-0.2-0.5-0.2-0.8c0-0.1,0-0.8,1-3.3l0.5-1.3h14l1.6,4c0.5,1.1,0.5,1.5,0.6,1.5
		c0,0-0.7,0.3-3.3,0.3H265v9.2h32.3v-9.2H294.9z M264.7,185.4H258l3.2-8.2L264.7,185.4z"/>
	<path fill="#E4AD2A" d="M161.8,157.6c-6-6.1-14.3-9.2-24.7-9.2c-5.8,0-11.3,1.2-16.3,3.7c-5.2,2.5-9.3,6.3-12.4,11.5
		c-3,5.1-4.5,10.4-4.5,15.8c0,1.7,0.2,3.5,0.5,5.2l1,4.4c0.5,1.7,1.1,3.5,1.9,5.2c2.3,5.1,6.3,9.2,11.7,12.2
		c5.3,2.9,11.6,4.4,18.5,4.4c10.2,0,18.3-3.1,24.3-9.1c6-6,9-13.4,9-21.7C170.9,171.3,167.8,163.7,161.8,157.6 M145.9,196.7
		c-2,2.8-4.9,4.2-8.8,4.2c-3.8,0-6.4-1.5-8.3-4.6c-2.1-3.4-3.1-9.2-3.1-17.3c0-7.5,1-12.9,3.1-16.1c1.9-3,4.6-4.4,8.5-4.4
		c4.1,0,7,1.5,8.8,4.7c2,3.5,3.1,9.1,3.1,16.6C149.2,188,148.1,193.7,145.9,196.7"/>
	<path fill="none" stroke="#2A2A35" stroke-linecap="round" stroke-linejoin="round" stroke-miterlimit="10" d="M161.8,157.6
		c-6-6.1-14.3-9.2-24.7-9.2c-5.8,0-11.3,1.2-16.3,3.7c-5.2,2.5-9.3,6.3-12.4,11.5c-3,5.1-4.5,10.4-4.5,15.8c0,1.7,0.2,3.5,0.5,5.2
		l1,4.4c0.5,1.7,1.1,3.5,1.9,5.2c2.3,5.1,6.3,9.2,11.7,12.2c5.3,2.9,11.6,4.4,18.5,4.4c10.2,0,18.3-3.1,24.3-9.1c6-6,9-13.4,9-21.7
		C170.9,171.3,167.8,163.7,161.8,157.6z M145.9,196.7c-2,2.8-4.9,4.2-8.8,4.2c-3.8,0-6.4-1.5-8.3-4.6c-2.1-3.4-3.1-9.2-3.1-17.3
		c0-7.5,1-12.9,3.1-16.1c1.9-3,4.6-4.4,8.5-4.4c4.1,0,7,1.5,8.8,4.7c2,3.5,3.1,9.1,3.1,16.6C149.2,188,148.1,193.7,145.9,196.7z"/>
	<path fill="#E4AD2A" d="M98,186.6l-1.8,0h-6.8l-0.4,1.8c-0.8,3.7-2.2,6.6-4.3,8.7c-1.9,2-5.1,3-9.3,3c-3.5,0-4.7-0.4-5.1-0.6
		c-0.8-0.4-1-0.7-1-0.7c-0.1-0.1-0.3-0.9-0.3-3.9v-31.8c0-2.6,0.5-3.6,0.7-3.8c0,0,0.6-0.7,3.6-0.7h3.4v-9.2H42.3v9.2h3.1
		c2.4,0,3.4,0.5,3.6,0.7c0.2,0.2,0.7,1.1,0.7,3.8v32.9c0,2.6-0.5,3.5-0.7,3.8c0,0-0.6,0.7-3.6,0.7h-3.1v9.2h55.4l0.3-20.6V186.6z"/>
	<path fill="none" stroke="#2A2A35" stroke-linecap="round" stroke-linejoin="round" stroke-miterlimit="10" d="M98,186.6l-1.8,0
		h-6.8l-0.4,1.8c-0.8,3.7-2.2,6.6-4.3,8.7c-1.9,2-5.1,3-9.3,3c-3.5,0-4.7-0.4-5.1-0.6c-0.8-0.4-1-0.7-1-0.7
		c-0.1-0.1-0.3-0.9-0.3-3.9v-31.8c0-2.6,0.5-3.6,0.7-3.8c0,0,0.6-0.7,3.6-0.7h3.4v-9.2H42.3v9.2h3.1c2.4,0,3.4,0.5,3.6,0.7
		c0.2,0.2,0.7,1.1,0.7,3.8v32.9c0,2.6-0.5,3.5-0.7,3.8c0,0-0.6,0.7-3.6,0.7h-3.1v9.2h55.4l0.3-20.6V186.6z"/>
	<g>
		<polygon fill="#E4AD2A" points="163.3,224.9 167.4,232.1 176.6,233.3 169.9,238.9 171.5,246.8 163.3,243 155,246.8 156.6,238.9 
			149.9,233.3 159.1,232.1 		"/>
		<polygon fill="#E4AD2A" points="202.9,224.9 207.1,232.1 216.3,233.3 209.6,238.9 211.2,246.8 202.9,243 194.7,246.8 196.3,238.9 
			189.6,233.3 198.8,232.1 		"/>
		<polygon fill="#E4AD2A" points="123.6,224.9 127.7,232.1 136.9,233.3 130.2,238.9 131.8,246.8 123.6,243 115.3,246.8 116.9,238.9 
			110.2,233.3 119.4,232.1 		"/>
	</g>
	<g>
		<path fill="#2A2A35" d="M124.2,106.3v8.7c-1,3.5,3.5,15.6,5.8,17.5c2.3,1.9,5.2,7.1,6.5,10.1c1.2,3,3.3,8,4.4,8.3
			c1,0.4,5.4,4.8,9.4,5.3c4,0.5,8.4-1.7,8.4-1.7s3.3,1.2,9.8,2.9c6.5,1.6,8.9,0,8.9,0c5.8,0.4,9.9-2.5,9.9-2.5
			c8.2,0.4,12.9-4.6,12.9-4.6c8.4-1.4,10.3-8.8,10.3-8.8c-0.3-5.3,3.1-8.7,3.1-8.7c5.8-5.1,6.8-20.3,8.2-24.9
			c1.4-4.6-0.3-14.5-0.3-14.5c-3.5-8.1-2.1-16.3,2.1-21.9c4.2-5.7,8.7-16.8,4.2-23.9c-4.5-7.1-1.9-18.4-0.2-32
			c1.7-13.6-9.1-15-9.1-15c-12.6-0.2-19.7,11.3-23.7,21.8c-4,10.4-11,28.5-11,28.5c-11.3-1.1-11.9,3.7-17.3,3
			c-0.3,0-0.6-0.1-0.9-0.1c-5.1-0.6-5.9-0.7-8.6-0.2c-11.2,1.9-13.8-1.8-13.8-1.8c-4.7-4.6-26.9-28.3-31.3-33.3
			c-4.4-5-16.4-7.3-19.7,1.6c-3.3,8.8,0.9,21.9,6.3,33.8c5.4,11.9,4.9,16.5,4.9,16.5c-0.2,15.6,13.3,21.4,13.3,21.4
			S120,103.9,124.2,106.3"/>
		<path fill="none" stroke="#E89D24" stroke-width="0.75" stroke-miterlimit="10" d="M124.2,106.3v8.7c-1,3.5,3.5,15.6,5.8,17.5
			c2.3,1.9,5.2,7.1,6.5,10.1c1.2,3,3.3,8,4.4,8.3c1,0.4,5.4,4.8,9.4,5.3c4,0.5,8.4-1.7,8.4-1.7s3.3,1.2,9.8,2.9c6.5,1.6,8.9,0,8.9,0
			c5.8,0.4,9.9-2.5,9.9-2.5c8.2,0.4,12.9-4.6,12.9-4.6c8.4-1.4,10.3-8.8,10.3-8.8c-0.3-5.3,3.1-8.7,3.1-8.7
			c5.8-5.1,6.8-20.3,8.2-24.9c1.4-4.6-0.3-14.5-0.3-14.5c-3.5-8.1-2.1-16.3,2.1-21.9c4.2-5.7,8.7-16.8,4.2-23.9
			c-4.5-7.1-1.9-18.4-0.2-32c1.7-13.6-9.1-15-9.1-15c-12.6-0.2-19.7,11.3-23.7,21.8c-4,10.4-11,28.5-11,28.5
			c-11.3-1.1-11.9,3.7-17.3,3c-0.3,0-0.6-0.1-0.9-0.1c-5.1-0.6-5.9-0.7-8.6-0.2c-11.2,1.9-13.8-1.8-13.8-1.8
			c-4.7-4.6-26.9-28.3-31.3-33.3c-4.4-5-16.4-7.3-19.7,1.6c-3.3,8.8,0.9,21.9,6.3,33.8c5.4,11.9,4.9,16.5,4.9,16.5
			c-0.2,15.6,13.3,21.4,13.3,21.4S120,103.9,124.2,106.3z"/>
		<path fill-rule="evenodd" clip-rule="evenodd" fill="#1F1F29" d="M143.5,103.9c0,1.3-1,2.4-2.3,2.4c-1.3,0-2.3-1.1-2.3-2.4
			c0-1.3,1-2.4,2.3-2.4C142.5,101.6,143.5,102.6,143.5,103.9"/>
		<path fill-rule="evenodd" clip-rule="evenodd" fill="#1F1F29" d="M202.4,95.5c0,1.2-0.9,2.1-2.1,2.1c-1.1,0-2.1-0.9-2.1-2.1
			c0-1.1,0.9-2.1,2.1-2.1C201.5,93.4,202.4,94.4,202.4,95.5"/>
		<path fill-rule="evenodd" clip-rule="evenodd" fill="#585044" d="M105.5,75.1c0-0.3,0-0.5,0-0.8c1-2.2-1-4.8,0.9-6.9
			c0.8,0.5,1.5,1.1,2.3,1.3c1.4,0.3,2.8,2.4,4,1c1.3-1.6,0.7-4-0.4-5.6c-1.3-1.9-2.4-3.8-3.3-5.9c-0.2-5.1-2.6-9.5-4.2-14.2
			c-0.6-2.9-2.3-6.4,0.7-8.5c2.9-2,5.8-0.1,8.8,1.4c3.6,1.8,6.7,3.7,7.7,8c0,0.2,0.2,0.5,0.4,0.6c7.5,5.1,5.6,12.6,4.8,19.8
			c-0.9-0.3-0.5-2.5-2.1-1.5c-1.1,0.7-1.7,1.8-1.1,3c1,2.1-0.2,3.3-1.5,4.5c-2.7,2.6-8.2,3.2-11.9,1.2c-0.8-0.4-1.5-2.2-2.4-0.9
			c-0.7,1,0.5,2.1,1.4,2.8c0.6,0.5,1.6,0.5,1.7,1.5c-3.6,1.7-3.4,1.9-0.8,4.8c2.4,2.8,4.6,0.8,6.9,0.2c0,1.7-1.5,2.1-2.6,2.9
			c-1.2,1,0.5,0.4,0.6,0.8c0,1.5-1.6,1.7-2.2,2.8C108.7,84.5,107.4,79.6,105.5,75.1 M125.1,56.2c-0.1-1.2-0.5-3-1.6-3.1
			c-4.3-0.6-4.5-4-5.3-7.1c-0.2-1-0.8-2-1.4-2.8c-1.5-1.8-3.3-1.5-4.4,0.7c-0.8,1.6-0.6,3.2,0.6,4.3c2.9,2.7,3.9,5.4,1.1,8.7
			c-0.5,0.6-0.7,1.5-0.3,2.3c1,2.2,0.9,4.5,1.1,6.9c0.1,1.8,0.7,4.1,3.1,3.8c2.2-0.3,2.8-2.5,2.2-4.5c-0.9-2.8,0.2-4.2,2.6-5.2
			C124.4,59.5,125.1,58.1,125.1,56.2"/>
		<path fill-rule="evenodd" clip-rule="evenodd" fill="#585044" d="M198.4,46.6c1.1-4,2.3-8,3.5-12c0.6-0.3,0.8-0.9,0.7-1.5l0,0
			c1.7-1.9,3.3-3.9,5.2-5.6c2.5-2.4,5.8-2,7.6,1.1c1.4,2.4,1.8,4.9,1.5,7.7c-0.4,3.6-1.2,7.4,0.4,11c0.1,1.5-0.5,3.2,0.5,4.8
			c2.1-1.2,1.5-3.8,3.2-4.9c2.2,1.5,0.9,3.5,0.7,5.4c-0.2,1.7-1.4,3.6,2.1,3.3c2.6-0.3,2.8,1.9,2,4c-0.8,1.9-2.2,3.6-2.2,5.9
			c-2.7-0.3-5.3,0-7.7,1.4c-0.8-0.5-1.2-1.4-2.3-1.5c1.6-3.7,6-1.6,8.5-4.2c-1.4-0.6-4.3,1-3.3-2.3c0.3-1.1,2-2.4,0.7-3.4
			c-1-0.8-2.6,0.3-3.9,0.6c-1.1,0.3-2.2,0.7-3.3,1c0-1.2-0.2-2.9-1.8-1.7c-1.7,1.2-3.3,2.9-3.7,5.8c1.7-1,2.4-2.6,4.1-2.7
			c-0.8,2-1.9,4-1.3,6.3c-0.7,0.3-1.4,0.5-2.1,0.8c-1.5-4.9-7-6.3-9.1-10.7l0,0v-1.4c0-0.7-0.1-1.4-0.1-2.1c0-1,0-1.9,0-2.9
			C198.3,48,198.4,47.3,198.4,46.6 M210.2,35.7c0.1-1.9,0-2.9-1.1-3.5c-1.2-0.6-2,0-2.9,0.6c-2.8,1.8-2.6,5.1-3.6,7.8
			c-2.4,6.9-2.4,6.9,3.6,10.4c0.4,0.2,0.8,0.5,1.1,0.8c1.8,1.5,3.5,1.1,4.9-0.6c1.3-1.6,1.2-3.5-0.4-4.7c-3-2.3-3.1-5.2-2.1-8.5
			C210,37,210.1,36,210.2,35.7 M224,59.4c0.4-0.5,0.7-0.7,0.8-1c0.1-0.2-0.1-0.4-0.1-0.6c-0.3,0.1-0.6,0.2-0.7,0.4
			C223.8,58.5,223.9,58.8,224,59.4"/>
		<path fill-rule="evenodd" clip-rule="evenodd" fill="#2A2A35" d="M140.2,71.6c0,0,19.7-28.1,51.5-4.7"/>
		<g>
			<g>
				<path fill="#DBB86C" d="M141.7,109.6C141.7,109.6,141.7,109.6,141.7,109.6c-3.3,0-6.2-3.5-6.5-5c-0.5-2.1,2.4-4.7,2.5-4.9
					l0.1-0.1c1.3-0.5,2.5-0.7,3.6-0.7c2.3,0,3.8,1.1,5,2.2c2.1,1.8-0.6,6.3-0.8,6.5C144.4,108.9,143.1,109.6,141.7,109.6z
					 M138,100.2c-0.3,0.3-2.7,2.6-2.3,4.2c0.3,1.4,3,4.5,6,4.5h0c1.3,0,2.5-0.6,3.5-1.7l0,0c0,0,2.6-4.2,0.8-5.7c-1.2-1-2.6-2-4.7-2
					C140.4,99.5,139.3,99.7,138,100.2z"/>
			</g>
			<g>
				<path fill="#DBB86C" d="M199.4,101.1L199.4,101.1c-0.1,0-0.3,0-0.4,0c-1.4,0-2.5-0.5-3.2-1.4c-1.4-1.6-1.2-4-1.2-4.1
					c0.3-4.2,4-5.7,6.4-5.7c0.1,0,0.2,0,0.3,0c2.1,0.1,3.9,3.6,4.3,6c0.2,1.2-0.1,2.3-0.9,3.2C203.5,100.4,201.7,101.1,199.4,101.1z
					 M200.9,90.5c-1.9,0-5.5,1.1-5.8,5.1c0,0-0.2,2.3,1.1,3.7c0.7,0.7,1.6,1.1,2.8,1.2c0.1,0,0.3,0,0.4,0h0c2.1,0,3.8-0.6,4.8-1.8
					c0.7-0.8,0.9-1.8,0.8-2.7c-0.4-2.5-2.1-5.4-3.8-5.5C201.1,90.5,201,90.5,200.9,90.5z"/>
			</g>
			<g>
				<path fill="#DBB86C" d="M200.1,150.2c0,0-0.8-0.3-2.3-1c-1.4-0.6-3.5-1.6-5.9-2.9c-2.4-1.3-5.1-2.9-7.8-5c-1.3-1-2.7-2.2-4-3.4
					c-1.3-1.2-2.7-2.4-4.2-3.3c-0.8-0.4-1.6-0.8-2.4-0.7c-0.8,0.1-1.5,0.7-2.1,1.3c-1.3,1.2-2,2.8-2.8,4.3c-1.5,3-2.8,5.9-4.2,8.2
					c-1.4,2.4-2.7,4.2-3.8,5.3c-0.3,0.3-0.6,0.5-0.8,0.7c-0.2,0.2-0.5,0.3-0.7,0.4c-0.4,0.2-0.6,0.3-0.6,0.3l0-0.1
					c0,0,0.2-0.1,0.6-0.3c0.2-0.1,0.4-0.2,0.6-0.4c0.2-0.2,0.5-0.4,0.8-0.7c1.1-1.1,2.3-3,3.6-5.4c0.6-1.2,1.3-2.5,1.9-3.9
					c0.7-1.4,1.4-2.9,2.1-4.4c0.8-1.5,1.6-3.1,3-4.4c0.6-0.6,1.4-1.3,2.4-1.4c1-0.1,1.9,0.4,2.6,0.8c1.6,1,2.9,2.2,4.2,3.4
					c1.3,1.2,2.6,2.3,4,3.3c1.4,1,2.8,1.8,4.1,2.7c1.3,0.8,2.6,1.6,3.8,2.2C196.9,148.6,200.1,150.2,200.1,150.2L200.1,150.2z"/>
				<path fill="#DBB86C" d="M171.9,114.8c0,0,0.4,1.1,0.7,2.9c0.2,0.9,0.3,1.9,0.4,3c0.1,1.1,0.3,2.3,0.5,3.5
					c0.5,2.3,0.8,4.7,0.7,6.6c0,0.4,0,0.9-0.1,1.2c0,0.4-0.1,0.7-0.1,1c0,0.3-0.2,0.5-0.2,0.6c-0.1,0.1-0.1,0.2-0.1,0.2l-0.1,0
					c0,0,0-0.1,0-0.2c0-0.1,0.1-0.3,0.1-0.6c0-0.3,0-0.6,0-0.9c0-0.4,0-0.8-0.1-1.2c-0.2-1.8-0.4-4.1-0.5-6.5
					c-0.1-1.2-0.2-2.4-0.5-3.5c-0.3-1.1-0.5-2.1-0.6-3C171.8,116,171.8,114.8,171.9,114.8L171.9,114.8z"/>
				<path fill="#DBB86C" d="M173.9,126.7c0,0,0.1-0.5,0.6-1.1c0.2-0.3,0.5-0.6,0.8-0.9c0.4-0.3,0.7-0.6,0.9-1
					c0.5-0.8,1.2-1.5,1.9-1.8c0.3-0.2,0.6-0.3,0.9-0.3c0.2,0,0.4,0,0.4,0l0,0.1c0,0-0.1,0.1-0.3,0.1c-0.2,0.1-0.4,0.3-0.6,0.5
					c-0.5,0.5-1.2,1.1-1.9,1.7c-0.4,0.3-0.7,0.6-0.9,1c-0.2,0.4-0.4,0.7-0.7,1C174.4,126.4,174,126.7,173.9,126.7L173.9,126.7z"/>
				<path fill="#DBB86C" d="M165,121.6c0,0,0,0.2,0.1,0.4c0.1,0.3,0.3,0.6,0.6,0.9c0.3,0.3,0.7,0.7,1.2,1.1c0.5,0.4,1.1,0.7,1.7,0.8
					c1.3,0.3,2.5,0.7,3.5,1.1c0.5,0.2,0.8,0.3,1.1,0.4c0.3,0.1,0.4,0.2,0.4,0.2v0.1c0,0-0.2,0-0.5,0c-0.3,0-0.7-0.1-1.2-0.2
					c-1-0.2-2.2-0.7-3.4-1.3c-0.6-0.3-1.2-0.6-1.8-0.9c-0.3-0.1-0.6-0.3-0.8-0.5c-0.2-0.2-0.4-0.4-0.6-0.6c-0.3-0.4-0.4-0.9-0.5-1.2
					C164.9,121.8,164.9,121.6,165,121.6L165,121.6z"/>
				<path fill="#DBB86C" d="M168.7,113.4c0,0,0,0.2,0,0.6c0,0.4-0.1,1-0.3,1.8c-0.2,0.7-0.6,1.7-1.6,2.3c-0.5,0.3-1.1,0.4-1.7,0.4
					c-0.6-0.1-1.3-0.2-1.9-0.5c-1.2-0.5-2.5-1.5-3.1-3c-0.6-1.5,0-3.4,1.2-4.5c1.1-1.2,2-2.7,3.5-3.6c0.7-0.5,1.6-0.7,2.5-0.7
					c0.9-0.1,1.8,0.1,2.6,0.2c0.9,0.1,1.7,0.1,2.6,0c0.9-0.1,1.6-0.4,2.5-0.6c0.4-0.1,0.9-0.2,1.3-0.2c0.5,0,0.9,0.2,1.3,0.3
					c0.8,0.3,1.6,0.7,2.3,1.2c0.7,0.5,1.3,1.1,1.8,1.7c0.5,0.6,0.9,1.4,0.9,2.3c0,1.7-0.9,3-1.8,3.9c-1,1-2.1,1.6-3.3,1.6
					c-1.1,0-2-0.5-2.6-0.9c-0.6-0.5-0.9-1.1-1-1.5c0-0.4,0.1-0.6,0.1-0.6l0.1,0c0,0-0.1,0.2,0,0.6c0,0.4,0.4,0.9,1,1.3
					c0.6,0.4,1.5,0.8,2.5,0.8c1,0,2.1-0.6,2.9-1.6c0.8-0.9,1.6-2.2,1.5-3.6c-0.1-1.4-1.2-2.6-2.5-3.5c-0.6-0.5-1.3-0.9-2.1-1.2
					c-0.8-0.3-1.5-0.4-2.3-0.1c-0.8,0.2-1.7,0.5-2.6,0.5c-0.9,0.1-1.8,0-2.6-0.1c-0.9-0.1-1.7-0.3-2.6-0.2c-0.8,0-1.7,0.2-2.4,0.6
					c-1.5,0.9-2.3,2.4-3.3,3.7c-1.1,1.2-1.5,2.8-0.9,4.1c0.5,1.3,1.7,2.2,2.8,2.7c0.6,0.3,1.2,0.4,1.7,0.5c0.6,0,1.1,0,1.5-0.3
					c0.9-0.5,1.3-1.4,1.6-2.1c0.3-0.7,0.4-1.3,0.5-1.7C168.6,113.6,168.7,113.4,168.7,113.4L168.7,113.4z"/>
				<path fill="#DBB86C" d="M149.9,146.2c-1.2-0.2-2.3-0.7-3.3-1.4c-0.2-0.2-0.5-0.3-0.7-0.5c-0.2-0.2-0.5-0.4-0.7-0.6
					c-0.4-0.4-0.8-0.9-1.1-1.5c-0.3-0.5-0.6-1.1-0.7-1.7c-0.1-0.3-0.2-0.6-0.3-0.9l-0.2-0.9c-0.1-0.6-0.1-1.2-0.2-1.8l0.1-1.8l0,0.1
					c0-0.4,0-0.7,0.1-1c0.1-0.3,0.2-0.6,0.3-1c0.2-0.6,0.5-1.2,0.8-1.8c0.6-1.1,1.4-2.2,2.2-3.2l0,0.1c0.4-1.4,0.7-2.8,0.9-4.2
					c0.1-0.7,0.2-1.4,0.2-2.1c0-0.7,0.1-1.5,0.3-2.2c0.4-1.4,0.8-2.8,1.4-4.1c0.6-1.3,1.2-2.7,1.9-3.9c0.4-0.6,0.7-1.2,1.1-1.9
					c0.4-0.6,0.8-1.2,1.3-1.8c0.9-1.1,1.8-2.3,2.9-3.2c0.5-0.5,1.1-1,1.7-1.4c0.3-0.2,0.6-0.5,0.9-0.7l0.9-0.6
					c0.6-0.4,1.2-0.8,1.9-1c0.7-0.3,1.3-0.6,2.1-0.8l2.1-0.6l2.2-0.2c0.7-0.1,1.5,0,2.2,0c0.7,0,1.4,0,2.2,0.1
					c0.7,0.1,1.5,0.2,2.2,0.3l2.1,0.5c1.4,0.5,2.8,0.9,4.1,1.6c0.7,0.3,1.3,0.7,1.9,1c0.6,0.3,1.3,0.7,1.9,1.2
					c0.6,0.4,1.2,0.8,1.8,1.3c0.6,0.4,1.2,0.9,1.7,1.4c2.2,1.9,4.2,4.1,5.8,6.5l0,0c-0.9-1.2-1.8-2.2-2.8-3.3c-1-1-2.1-2-3.2-2.9
					c-0.5-0.5-1.1-0.9-1.7-1.3c-0.6-0.4-1.2-0.8-1.8-1.2c-0.6-0.4-1.2-0.8-1.9-1.1c-0.6-0.3-1.3-0.7-1.9-1c-1.3-0.6-2.7-1.1-4-1.5
					l-2.1-0.5c-0.7-0.1-1.4-0.2-2.1-0.3c-0.7-0.1-1.4-0.1-2.2-0.1c-0.7,0-1.4-0.1-2.1,0l-2.1,0.2l-2.1,0.5c-0.7,0.1-1.3,0.5-2,0.8
					c-0.7,0.2-1.3,0.6-1.9,1l-0.9,0.5c-0.3,0.2-0.6,0.4-0.9,0.6c-0.6,0.4-1.2,0.8-1.7,1.4c-1.1,0.9-2,2-2.9,3.1
					c-0.4,0.6-0.9,1.2-1.3,1.7c-0.4,0.6-0.8,1.2-1.1,1.8c-0.7,1.3-1.4,2.6-1.9,3.9c-0.5,1.3-1,2.7-1.3,4.1l-0.2,1c0,0.4,0,0.7,0,1.1
					c0,0.7,0,1.5-0.1,2.2c-0.2,1.5-0.4,2.9-0.8,4.3l0,0l0,0c-0.8,1-1.5,2-2.1,3.1c-0.3,0.5-0.6,1.1-0.8,1.7
					c-0.1,0.3-0.2,0.6-0.3,0.9c-0.1,0.3-0.1,0.6-0.1,0.9l0,0l0,0l-0.1,1.8c0,0.6,0,1.2,0.1,1.7l0.1,0.9c0,0.3,0.2,0.6,0.2,0.8
					c0.1,0.6,0.4,1.1,0.7,1.6c0.3,0.5,0.6,1,1,1.4c0.2,0.2,0.4,0.4,0.6,0.6c0.2,0.2,0.4,0.4,0.7,0.6
					C147.7,145.3,148.8,145.8,149.9,146.2L149.9,146.2z"/>
				<path fill="#DBB86C" d="M196.5,113.1c0,0,1,1,2.3,2.6c0.7,0.8,1.4,1.8,2.1,2.9c0.7,1.1,1.5,2.3,2.4,3.4c0.4,0.6,0.8,1.2,1.2,1.8
					c0.4,0.6,0.6,1.2,0.8,1.9c0.2,0.6,0.3,1.3,0.4,1.9c0.1,0.6,0.1,1.2,0.1,1.7c0,2.1-0.5,3.5-0.5,3.5l-0.1,0c0,0,0.2-1.4,0-3.5
					c-0.1-1-0.2-2.2-0.6-3.5c-0.2-0.6-0.4-1.2-0.7-1.8c-0.3-0.6-0.6-1.2-1-1.8c-0.7-1.2-1.5-2.4-2.3-3.4c-0.8-1-1.6-2-2.2-2.8
					C197.2,114.3,196.5,113.1,196.5,113.1L196.5,113.1z"/>
				<path fill="#DBB86C" d="M165,96c-1.4,0.7-2.8,1.4-4.2,2.3c-0.7,0.4-1.3,0.9-2,1.3l-1.9,1.4c-0.6,0.5-1.2,1-1.9,1.5l-1.8,1.6
					c-0.6,0.5-1.1,1.1-1.7,1.7c-0.6,0.6-1,1.2-1.5,1.9c-0.5,0.6-0.9,1.3-1.3,2c-0.4,0.7-0.8,1.3-1.2,2l-1,2.1
					c-0.4,0.7-0.6,1.5-0.9,2.2c-0.2,0.7-0.6,1.5-0.8,2.2l-0.6,2.3c-0.2,0.8-0.3,1.5-0.5,2.3l-0.4,2.3l0,0c-0.4,1.5-1.1,2.9-2,4.1
					l0,0c0.8-1.3,1.4-2.7,1.7-4.1l0,0l0.3-2.4c0.1-0.8,0.2-1.6,0.4-2.4l0.6-2.3c0.2-0.8,0.5-1.5,0.8-2.3c0.3-0.7,0.5-1.5,1-2.2
					l1.1-2.1c0.4-0.7,0.9-1.3,1.3-2c0.4-0.7,0.9-1.3,1.4-1.9c0.5-0.6,1-1.3,1.5-1.8c0.5-0.6,1.1-1.2,1.6-1.8l1.7-1.7
					c0.6-0.5,1.2-1,1.8-1.6c1.3-1,2.6-1.9,4-2.7C162,97.2,163.4,96.5,165,96L165,96z"/>
				<path fill="#DBB86C" d="M178.3,94.9c0,0,2.3,0.7,5.5,2.3c0.8,0.4,1.7,0.9,2.5,1.4c0.9,0.5,1.8,1.2,2.7,1.8
					c0.9,0.7,1.8,1.4,2.8,2.1c1,0.7,1.8,1.5,2.8,2.3c0.9,0.8,1.8,1.6,2.6,2.5c0.4,0.4,0.8,0.9,1.2,1.3c0.4,0.5,0.7,0.9,1.1,1.4
					c0.7,0.9,1.2,1.9,1.8,2.7c0.5,0.9,1,1.7,1.4,2.5c1.9,3.1,3.7,4.6,3.7,4.6l0,0c0,0-0.5-0.3-1.3-1c-0.8-0.7-1.8-1.9-2.8-3.3
					c-0.5-0.7-1.1-1.6-1.6-2.5c-0.6-0.8-1.1-1.8-1.8-2.7c-0.3-0.4-0.7-0.9-1-1.4c-0.4-0.4-0.7-0.9-1.1-1.3c-0.7-0.9-1.6-1.7-2.4-2.6
					c-0.9-0.8-1.7-1.6-2.7-2.4c-0.9-0.7-1.9-1.4-2.8-2c-1.9-1.2-3.7-2.2-5.3-3.1C180.5,96,178.3,95,178.3,94.9L178.3,94.9z"/>
				<path fill="#DBB86C" d="M140.1,71.6c0,0,0.5-0.8,1.5-2c1-1.2,2.6-2.9,4.7-4.6c2.1-1.7,4.8-3.5,8-4.8c1.6-0.7,3.3-1.2,5-1.7
					c1.7-0.4,3.5-0.8,5.4-0.9c1.8-0.2,3.7-0.1,5.5,0c0.9,0.1,1.8,0.2,2.7,0.4c0.9,0.2,1.7,0.3,2.6,0.5c0.8,0.2,1.6,0.5,2.4,0.7
					c0.8,0.3,1.5,0.6,2.3,0.8c1.4,0.6,2.8,1.2,4,1.9c1.2,0.6,2.3,1.3,3.2,1.9c0.9,0.6,1.8,1.1,2.4,1.6c1.3,1,2,1.5,2,1.5l0,0
					c0,0-0.8-0.5-2.1-1.3c-0.7-0.4-1.5-0.9-2.4-1.5c-0.9-0.6-2-1.2-3.3-1.8c-0.6-0.3-1.2-0.6-1.9-0.9s-1.3-0.6-2.1-0.9
					s-1.5-0.5-2.2-0.8c-0.8-0.2-1.6-0.5-2.4-0.7c-0.8-0.2-1.7-0.4-2.5-0.6c-0.9-0.2-1.7-0.3-2.6-0.4c-1.8-0.2-3.6-0.3-5.4-0.2
					c-1.8,0.1-3.6,0.4-5.3,0.8c-1.7,0.5-3.4,1-4.9,1.8c-3.1,1.4-5.7,3.2-7.8,4.9c-2.1,1.7-3.8,3.3-4.8,4.4
					C140.7,70.9,140.2,71.6,140.1,71.6L140.1,71.6z"/>
				<path fill="#DBB86C" d="M133.6,71.6c0,0,0.4-1.3,1.5-2.9c0.5-0.8,1.3-1.7,2.2-2.5c0.9-0.8,1.9-1.7,2.9-2.5
					c0.5-0.4,1-0.8,1.6-1.2c0.5-0.4,1.1-0.6,1.6-0.9c0.5-0.3,1.1-0.5,1.6-0.7c0.5-0.2,1-0.3,1.5-0.5c0.5-0.1,0.9-0.3,1.3-0.3
					c0.4-0.1,0.7-0.1,1-0.1c0.6-0.1,0.9-0.1,0.9-0.1l0,0.1c0,0-0.3,0.1-0.8,0.3c-0.3,0.1-0.6,0.2-1,0.3c-0.4,0.1-0.8,0.3-1.2,0.4
					c-0.5,0.2-0.9,0.3-1.4,0.5c-0.5,0.2-1,0.4-1.6,0.7c-0.5,0.3-1.1,0.5-1.6,0.8c-0.5,0.3-1.1,0.6-1.6,1l-0.8,0.5l-0.7,0.6
					c-0.5,0.4-0.9,0.9-1.3,1.3c-0.8,0.9-1.4,1.8-2,2.6c-0.6,0.8-1,1.4-1.4,1.9C133.9,71.4,133.7,71.6,133.6,71.6L133.6,71.6z"/>
				<path fill="#DBB86C" d="M177.5,55.5c0,0,1.1-0.5,3-0.9c0.9-0.2,2-0.3,3.2-0.3c1.2,0,2.4-0.1,3.7-0.1c0.6,0,1.3,0,1.9,0.1
					c0.6,0.1,1.2,0.2,1.8,0.3c0.6,0.2,1.1,0.3,1.6,0.5c0.5,0.2,1,0.4,1.4,0.6c0.4,0.3,0.8,0.5,1.1,0.7c0.3,0.2,0.6,0.5,0.8,0.6
					c0.4,0.4,0.6,0.6,0.6,0.6l0,0c0,0-0.3-0.2-0.7-0.5c-0.2-0.1-0.5-0.4-0.8-0.5c-0.3-0.2-0.7-0.4-1.1-0.6c-0.4-0.2-0.9-0.3-1.4-0.5
					c-0.5-0.1-1-0.3-1.6-0.5c-0.6-0.1-1.1-0.2-1.7-0.3c-0.6-0.1-1.2-0.2-1.8-0.2c-1.2-0.1-2.5-0.1-3.6,0.1c-0.6,0.1-1.1,0.2-1.6,0.3
					c-0.5,0.1-1,0.1-1.5,0.2C178.8,55.4,177.5,55.6,177.5,55.5L177.5,55.5z"/>
				<path fill="#DBB86C" d="M129.6,94c0,0,0.1-0.8,0.5-1.8c0.2-0.5,0.6-1.1,1.1-1.6c0.2-0.3,0.5-0.5,0.7-0.8
					c0.2-0.3,0.5-0.6,0.7-0.9c0.5-0.6,1.1-1.1,1.6-1.5c0.3-0.2,0.6-0.4,0.9-0.5c0.3-0.1,0.6-0.2,0.9-0.3c0.5-0.2,1-0.2,1.3-0.2
					c0.3,0,0.5,0,0.5,0l0,0.1c0,0-0.2,0.1-0.5,0.2c-0.3,0.1-0.7,0.3-1.2,0.5c-0.3,0.1-0.5,0.2-0.8,0.4c-0.3,0.1-0.6,0.3-0.8,0.5
					c-0.6,0.3-1.2,0.8-1.7,1.2c-0.3,0.2-0.5,0.5-0.8,0.7c-0.2,0.3-0.4,0.6-0.6,0.9c-0.3,0.6-0.6,1.2-0.9,1.6
					C130,93.4,129.6,94,129.6,94L129.6,94z"/>
				<path fill="#DBB86C" d="M143.1,91.6c0,0,0.6-0.5,1.6-0.7c0.3-0.1,0.5-0.1,0.8-0.1c0.3,0,0.6,0.1,0.9,0.1c0.3,0.1,0.6,0.2,1,0.3
					c0.3,0.1,0.6,0.2,1,0.3c0.3,0.1,0.6,0.3,0.9,0.5c0.3,0.2,0.5,0.4,0.8,0.7c0.2,0.3,0.4,0.5,0.6,0.8c0.1,0.3,0.3,0.5,0.4,0.8
					c0.3,0.5,0.3,0.9,0.4,1.2c0.1,0.3,0.1,0.5,0.1,0.5l-0.1,0l-0.3-0.4c-0.2-0.2-0.3-0.6-0.6-1c-0.1-0.2-0.3-0.4-0.4-0.7
					c-0.2-0.2-0.4-0.4-0.5-0.7c-0.2-0.2-0.4-0.4-0.6-0.7c-0.2-0.2-0.5-0.4-0.7-0.6c-0.3-0.2-0.6-0.4-0.9-0.4
					c-0.3-0.1-0.6-0.1-0.9-0.1c-0.6,0-1.2,0.1-1.7,0.1c-0.5,0.1-0.9,0.1-1.2,0.2C143.3,91.7,143.1,91.7,143.1,91.6L143.1,91.6z"/>
				<path fill="#DBB86C" d="M133.7,97.1c0,0-0.2,0.2-0.4,0.6c-0.3,0.4-0.6,1-1,1.7c-0.2,0.4-0.3,0.8-0.5,1.2
					c-0.1,0.4-0.3,0.9-0.4,1.4c-0.1,0.5-0.1,1-0.1,1.6c0.1,0.5,0.2,1.1,0.4,1.6c0.2,0.5,0.4,1,0.7,1.4c0.3,0.4,0.5,0.9,0.9,1.3
					c0.3,0.4,0.6,0.8,0.9,1.1c0.3,0.3,0.6,0.7,0.9,1c0.5,0.6,1.1,1,1.4,1.4c0.3,0.3,0.5,0.5,0.5,0.5l0,0c0,0-0.2-0.1-0.6-0.4
					c-0.4-0.3-1-0.6-1.6-1.2c-0.3-0.3-0.6-0.6-1-0.9c-0.4-0.3-0.6-0.8-0.9-1.2c-0.3-0.4-0.6-0.9-0.8-1.4c-0.3-0.5-0.4-1-0.6-1.6
					c-0.1-0.3-0.1-0.6-0.2-0.8c0-0.3-0.1-0.5-0.1-0.8c0-0.5-0.1-1.1,0-1.6c0-0.5,0.1-1,0.2-1.5c0.2-0.5,0.3-0.9,0.5-1.3
					c0.4-0.8,0.9-1.3,1.2-1.6C133.4,97.2,133.6,97.1,133.7,97.1L133.7,97.1z"/>
				<path fill="#DBB86C" d="M134.1,99.8c0,0,0.6-0.7,1.8-1.3c0.3-0.2,0.6-0.4,1-0.5c0.3-0.2,0.7-0.3,1.1-0.4
					c0.4-0.1,0.8-0.2,1.2-0.4c0.4-0.1,0.8-0.3,1.3-0.4l0.7-0.2l0.7-0.1c0.4-0.1,0.9,0,1.3,0.1c0.4,0.1,0.8,0.3,1.2,0.4
					c0.3,0.2,0.7,0.4,0.9,0.7c0.2,0.3,0.4,0.5,0.6,0.7c0.1,0.2,0.2,0.5,0.3,0.7c0.1,0.4,0.2,0.6,0.2,0.6l-0.1,0c0,0-0.1-0.2-0.4-0.5
					c-0.1-0.1-0.2-0.3-0.4-0.6c-0.2-0.2-0.4-0.4-0.6-0.6c-0.2-0.2-0.5-0.3-0.8-0.5c-0.3-0.1-0.7-0.3-1-0.4c-0.4-0.1-0.8-0.2-1.2-0.2
					c-0.4,0-0.8,0-1.3,0c-0.4,0-0.9,0.1-1.3,0.2c-0.4,0.1-0.8,0.3-1.2,0.5c-0.7,0.4-1.4,0.8-2,1C134.9,99.4,134.1,99.8,134.1,99.8
					L134.1,99.8z"/>
				<path fill="#DBB86C" d="M136.6,100.6c1-0.6,2.1-1.1,3.2-1.4c0.6-0.1,1.2-0.2,1.8-0.3c0.3,0,0.6,0,0.9,0c0.3,0,0.6,0.1,0.9,0.1
					c0.3,0,0.6,0.1,0.9,0.2c0.3,0.1,0.6,0.2,0.8,0.4l0.8,0.4c0.2,0.2,0.5,0.4,0.7,0.5c0.5,0.3,0.8,0.8,1.3,1.2
					c0.4,0.5,0.7,1,1.1,1.4l0,0l0,0c0.3,0.7,0.6,1.5,0.9,2.2l0,0.1l0,0c-1.3,1.4-2.9,2.6-4.7,3.4c-0.5,0.2-0.9,0.3-1.4,0.5
					c-0.5,0.1-1,0.2-1.5,0.2c-0.5,0-1,0-1.5-0.2c-0.5-0.1-1-0.3-1.4-0.4c-0.9-0.4-1.8-0.9-2.5-1.5c-0.4-0.3-0.7-0.6-1.1-1
					c-0.3-0.4-0.6-0.8-0.9-1.2c-0.1-0.2-0.2-0.4-0.3-0.7c-0.1-0.2-0.2-0.5-0.2-0.7c-0.1-0.2-0.1-0.5,0-0.7c0-0.3,0.1-0.5,0.2-0.7
					c0.1-0.2,0.2-0.4,0.4-0.6c0.1-0.2,0.3-0.4,0.5-0.5C135.7,101,136.1,100.8,136.6,100.6 M136.6,100.6c-0.4,0.3-0.8,0.5-1.2,0.8
					c-0.2,0.2-0.3,0.3-0.5,0.5c-0.1,0.2-0.3,0.4-0.3,0.6c-0.1,0.2-0.1,0.4-0.1,0.7c0,0.2,0,0.5,0.1,0.7c0,0.2,0.1,0.4,0.2,0.6
					c0.1,0.2,0.2,0.4,0.3,0.6c0.2,0.4,0.6,0.7,0.9,1.1c0.3,0.3,0.7,0.6,1,0.9c0.7,0.6,1.5,1.1,2.4,1.4c0.4,0.2,0.8,0.3,1.3,0.4
					c0.5,0.1,0.9,0.2,1.4,0.2c0.5,0,0.9-0.1,1.4-0.1c0.5-0.1,0.9-0.2,1.3-0.4c0.9-0.3,1.7-0.8,2.5-1.3c0.8-0.5,1.5-1.1,2.2-1.8
					l0,0.1c-0.3-0.7-0.6-1.5-0.9-2.2l0,0l-0.6-0.7c-0.2-0.2-0.4-0.5-0.6-0.7c-0.4-0.4-0.8-0.8-1.3-1.1l-0.7-0.5l-0.8-0.4
					c-0.2-0.1-0.5-0.2-0.8-0.3c-0.3-0.1-0.5-0.2-0.8-0.3c-0.3-0.1-0.5-0.2-0.8-0.2c-0.3,0-0.6-0.1-0.8-0.1c-0.6,0-1.1,0-1.7,0.1
					c-0.6,0.1-1.1,0.2-1.7,0.4C137.6,100.1,137.1,100.3,136.6,100.6"/>
				<path fill="#DBB86C" d="M188.5,91.6c0,0,0-0.2,0.1-0.6c0.1-0.4,0.2-0.9,0.5-1.4c0.2-0.6,0.6-1.2,1.1-1.8c0.5-0.6,1-1.3,1.6-1.9
					c0.3-0.3,0.6-0.6,0.9-0.9c0.4-0.2,0.7-0.5,1.1-0.6c0.4-0.1,0.7-0.3,1.1-0.3c0.4,0,0.7-0.1,1,0c0.3,0,0.6,0.1,0.9,0.1
					c0.2,0.1,0.5,0.2,0.6,0.2c0.3,0.1,0.5,0.2,0.5,0.2l0,0.1c0,0-0.2,0-0.6-0.1c-0.2,0-0.4-0.1-0.6-0.1c-0.2,0-0.5,0-0.8,0
					c-0.3,0-0.6,0.1-0.9,0.1c-0.3,0-0.6,0.2-1,0.3c-0.3,0.1-0.7,0.3-1,0.5c-0.3,0.2-0.7,0.4-1,0.7c-0.3,0.3-0.6,0.5-0.9,0.8
					c-0.3,0.3-0.5,0.6-0.6,1c-0.2,0.3-0.3,0.7-0.5,1c-0.1,0.3-0.3,0.6-0.5,0.9C188.9,90.9,188.5,91.7,188.5,91.6L188.5,91.6z"/>
				<path fill="#DBB86C" d="M197.9,79.2c0,0,0.2-0.1,0.6-0.1c0.4-0.1,0.9-0.1,1.6-0.2c0.7,0,1.4,0,2.2,0.3c0.8,0.2,1.7,0.4,2.5,0.6
					c0.4,0.1,0.8,0.2,1.3,0.4c0.4,0.2,0.8,0.4,1.1,0.6c0.3,0.3,0.7,0.5,1,0.8c0.3,0.3,0.5,0.5,0.7,0.8c0.2,0.3,0.3,0.5,0.5,0.8
					c0.1,0.2,0.2,0.5,0.2,0.7c0.1,0.4,0.2,0.6,0.2,0.6l-0.1,0c0,0-0.1-0.2-0.3-0.5c-0.1-0.2-0.2-0.4-0.4-0.6
					c-0.2-0.2-0.4-0.4-0.5-0.7c-0.2-0.2-0.5-0.4-0.7-0.7c-0.3-0.3-0.6-0.4-0.9-0.7c-0.3-0.2-0.7-0.4-1-0.6c-0.4-0.2-0.7-0.4-1.1-0.5
					c-0.8-0.3-1.6-0.5-2.5-0.6c-0.4,0-0.8,0-1.2,0c-0.4,0-0.7,0-1-0.1C198.8,79.3,197.9,79.2,197.9,79.2L197.9,79.2z"/>
				<path fill="#DBB86C" d="M205.6,87.3c0,0,1,0.7,2,2.1c0.2,0.4,0.5,0.8,0.8,1.2c0.2,0.4,0.4,1,0.6,1.5c0.2,0.5,0.3,1.1,0.5,1.6
					c0.1,0.6,0.3,1.1,0.3,1.7c0,0.3,0.1,0.6,0.1,0.9l0,0.9c0,0.6-0.2,1.2-0.3,1.7c-0.1,0.6-0.4,1-0.6,1.5c-0.2,0.5-0.5,0.9-0.7,1.2
					c-0.3,0.4-0.5,0.7-0.7,1c-0.3,0.3-0.5,0.5-0.7,0.7c-0.4,0.4-0.6,0.6-0.6,0.6l0,0c0,0,0.2-0.2,0.4-0.7c0.1-0.2,0.3-0.5,0.5-0.7
					c0.2-0.3,0.4-0.6,0.6-1c0.2-0.4,0.5-0.8,0.6-1.2c0.1-0.5,0.4-0.9,0.5-1.4c0.1-0.5,0.3-1,0.3-1.6l0.1-0.8l0-0.9
					c0-0.6-0.1-1.1-0.2-1.7c-0.2-0.5-0.3-1.1-0.6-1.6c-0.5-1-1-1.8-1.5-2.6C206.3,88.3,205.6,87.3,205.6,87.3L205.6,87.3z"/>
				<path fill="#DBB86C" d="M192.9,98.7c0.2-1.4,0.6-2.9,1.1-4.2c0.3-0.7,0.7-1.3,1.1-1.9c0.2-0.3,0.4-0.6,0.7-0.9l0.8-0.8
					c0.3-0.2,0.6-0.4,1-0.6c0.4-0.1,0.7-0.2,1.1-0.3c0.4-0.1,0.7-0.1,1.1-0.1c0.4-0.1,0.7,0.1,1.1,0.2c0.4,0.1,0.7,0.1,1.1,0.3
					l1,0.4c0.3,0.1,0.6,0.4,1,0.5l0.9,0.6l0,0l0,0c0.5,1.3,0.9,2.6,0.9,4c0,0.3,0,0.7,0,1c0,0.3-0.1,0.7-0.2,1
					c-0.1,0.3-0.2,0.7-0.4,1c-0.1,0.3-0.4,0.6-0.6,0.9l0,0l0,0c-0.9,0.6-1.9,1-2.9,1.2c-0.5,0.1-1,0.2-1.5,0.3c-0.5,0-1,0.1-1.6,0
					c-0.3,0-0.5,0-0.8-0.1c-0.3,0-0.5-0.1-0.8-0.1l-0.7-0.2c-0.3-0.1-0.5-0.2-0.7-0.3c-0.5-0.2-0.9-0.4-1.4-0.7
					c-0.4-0.3-0.8-0.6-1.2-0.9l0,0c0.4,0.3,0.9,0.5,1.3,0.8c0.5,0.2,0.9,0.4,1.4,0.6c0.2,0.1,0.5,0.2,0.7,0.2l0.7,0.2
					c0.2,0.1,0.5,0.1,0.7,0.1c0.2,0,0.5,0,0.7,0c0.5,0,1,0,1.5-0.1c0.5-0.1,1-0.2,1.4-0.3c0.9-0.3,1.9-0.7,2.7-1.1l-0.1,0
					c0.2-0.3,0.4-0.5,0.5-0.8c0.2-0.3,0.3-0.6,0.4-0.9c0.1-0.3,0.2-0.6,0.2-0.9c0.1-0.3,0.1-0.6,0.1-1c0-1.3-0.2-2.6-0.7-3.9l0,0.1
					l-0.9-0.6c-0.3-0.2-0.6-0.4-0.9-0.5l-1-0.4c-0.3-0.2-0.7-0.2-1-0.3c-0.4,0-0.7-0.1-1-0.1c-0.3,0.1-0.7,0-1,0.1
					c-0.3,0.1-0.7,0.2-1,0.4l-0.9,0.6l-0.8,0.7l-0.7,0.8c-0.4,0.6-0.8,1.2-1.1,1.8C193.8,95.9,193.3,97.3,192.9,98.7L192.9,98.7z"/>
				<path fill="#DBB86C" d="M208.6,105.7c0,0-0.1,0.1-0.3,0.4c-0.2,0.3-0.4,0.7-0.6,1.1c-0.1,0.2-0.2,0.5-0.3,0.8
					c-0.1,0.3-0.2,0.6-0.3,0.9c-0.2,0.7-0.2,1.4,0,2.1c0.1,0.4,0.2,0.7,0.2,1.1c0.1,0.3,0.2,0.7,0.3,1c0.2,0.7,0.4,1.3,0.5,1.8
					c0.3,1,0.4,1.8,0.4,1.8l-0.1,0c0,0-0.1-0.2-0.3-0.4c-0.2-0.3-0.4-0.7-0.6-1.2c-0.2-0.5-0.5-1.1-0.6-1.8
					c-0.2-0.7-0.3-1.4-0.2-2.2c0-0.4,0-0.7,0-1.1c0-0.4,0-0.7,0-1.1c0-0.7,0.1-1.4,0.4-1.9c0.2-0.5,0.6-0.9,0.8-1.1
					C208.4,105.7,208.5,105.6,208.6,105.7L208.6,105.7z"/>
				<path fill="#DBB86C" d="M215.8,103.9c0,0,0.5,1,0.9,2.7c0.2,0.8,0.4,1.8,0.4,2.9c0.1,1.1,0.2,2.2,0.3,3.4c0.1,1.1,0.1,2.3,0,3.4
					c-0.1,0.5-0.2,1.1-0.3,1.5c-0.1,0.5-0.3,0.9-0.4,1.3c-0.2,0.4-0.4,0.8-0.5,1.1c-0.1,0.3-0.4,0.6-0.5,0.8
					c-0.3,0.4-0.5,0.6-0.5,0.6l0,0c0,0,0.1-0.3,0.3-0.7c0.1-0.2,0.3-0.5,0.4-0.8c0.1-0.3,0.3-0.7,0.4-1.1c0.1-0.4,0.2-0.9,0.3-1.3
					c0.1-0.5,0.2-1,0.3-1.5c0.1-0.5,0.1-1.1,0.2-1.6c0-0.6,0.1-1.1,0.1-1.7c0.1-1.1,0-2.3-0.3-3.3c-0.2-1-0.5-2-0.6-2.8
					C216,105.1,215.8,103.9,215.8,103.9L215.8,103.9z"/>
				<path fill="#DBB86C" d="M155.5,75.3c0,0,0.4,0.3,1.1,0.8c0.6,0.6,1.5,1.5,2.2,2.9c0.3,0.7,0.6,1.5,0.7,2.3
					c0.1,0.9,0.1,1.7,0.1,2.7c0,1.8,0.1,3.8,0.2,5.8c0,2,0,3.9-0.4,5.8c-0.1,0.5-0.2,0.9-0.5,1.4c-0.2,0.5-0.5,0.8-0.8,1.1
					c-0.5,0.7-1.1,1.2-1.6,1.8c-2,2.1-3.5,3.4-3.5,3.4l0,0c0,0,1.3-1.5,3.2-3.7c0.5-0.6,1-1.2,1.5-1.8c0.2-0.3,0.6-0.7,0.7-1
					c0.2-0.4,0.3-0.8,0.4-1.2c0.4-1.7,0.5-3.7,0.6-5.7c0.1-2,0-3.9-0.2-5.7c-0.1-0.9-0.2-1.8-0.3-2.6c-0.1-0.8-0.4-1.5-0.7-2.2
					c-0.6-1.3-1.4-2.3-1.9-2.9C155.9,75.6,155.5,75.3,155.5,75.3L155.5,75.3z"/>
				<path fill="#DBB86C" d="M178.9,73.9c0.1,1.1,0.1,2.1,0.2,3.2l0,0.1l-0.1,0.1c-0.7,0.6-1.4,1.4-1.9,2.2c-0.5,0.8-0.9,1.7-1,2.7
					c0.1,1,0.3,2,0.5,2.9c0.2,1,0.4,1.9,0.7,2.9c0.3,0.9,0.6,1.9,1,2.8c0.4,0.9,0.9,1.7,1.5,2.5c0.3,0.4,0.6,0.7,1,1l1.1,1
					c0.7,0.7,1.5,1.3,2.2,2l0,0.1c-0.9-0.5-1.7-1.1-2.5-1.7l-1.2-0.9c-0.4-0.3-0.8-0.6-1.1-1c-0.7-0.8-1.2-1.7-1.6-2.6
					c-0.4-0.9-0.7-1.9-0.9-2.9c-0.2-1-0.4-2-0.5-2.9l-0.2-1.5c-0.1-0.5-0.2-1-0.3-1.5c-0.1-1,0.2-2.1,0.8-2.9
					c0.5-0.9,1.3-1.6,2.1-2.2l-0.1,0.2C178.7,76,178.8,74.9,178.9,73.9L178.9,73.9z"/>
				<path fill="#DBB86C" d="M142.5,86.4c0,0,0.4-0.6,1.2-1.2c0.4-0.3,0.9-0.6,1.5-0.9c0.3-0.1,0.6-0.3,0.9-0.4
					c0.3-0.1,0.6-0.3,0.9-0.5c0.6-0.3,1.3-0.5,2-0.6c0.3-0.1,0.7,0,1,0c0.3,0.1,0.6,0.2,0.8,0.3c0.2,0.1,0.5,0.3,0.6,0.4
					c0.2,0.1,0.3,0.3,0.4,0.4c0.2,0.2,0.3,0.4,0.3,0.4l0,0c0,0-0.1-0.1-0.4-0.2c-0.1-0.1-0.3-0.2-0.5-0.3c-0.2-0.1-0.4-0.2-0.6-0.2
					c-0.2,0-0.5-0.1-0.8-0.1c-0.3,0-0.6,0-0.9,0c-0.6,0-1.2,0.1-1.9,0.3c-0.7,0.1-1.3,0.5-1.8,0.8c-0.5,0.4-1,0.8-1.4,1
					C143.1,86.2,142.5,86.5,142.5,86.4L142.5,86.4z"/>
				<path fill="#DBB86C" d="M147.3,79.2c0,0-0.2-0.5-0.1-1.2c0-0.4,0.1-0.8,0.2-1.2c0.2-0.4,0.2-0.9,0.3-1.4c0-0.5,0.2-1,0.3-1.4
					c0.2-0.4,0.4-0.8,0.7-1.1c0.3-0.3,0.6-0.5,0.8-0.5c0.2-0.1,0.3-0.1,0.3-0.1l0,0.1c0,0-0.1,0.1-0.2,0.2c-0.1,0.1-0.3,0.4-0.5,0.6
					c-0.2,0.3-0.3,0.6-0.5,1c-0.2,0.4-0.3,0.8-0.6,1.2c-0.2,0.4-0.3,0.9-0.3,1.4c0,0.5,0,0.9-0.1,1.2
					C147.5,78.7,147.3,79.2,147.3,79.2L147.3,79.2z"/>
				<path fill="#DBB86C" d="M181.1,67.1c0,0,0.6,0,1.5,0.4c0.4,0.1,0.9,0.4,1.4,0.8c0.5,0.4,1,0.7,1.5,0.9c0.5,0.3,1,0.7,1.5,1
					c0.2,0.2,0.4,0.4,0.6,0.6c0.2,0.2,0.3,0.4,0.4,0.6c0.2,0.4,0.4,0.8,0.5,1c0.1,0.3,0.1,0.4,0.1,0.4l-0.1,0c0,0-0.1-0.1-0.3-0.3
					c-0.1-0.2-0.4-0.5-0.7-0.8c-0.3-0.3-0.6-0.7-1-1.1c-0.4-0.4-0.8-0.8-1.2-1.2c-0.4-0.4-0.9-0.8-1.5-0.9c-0.5-0.2-1-0.4-1.4-0.6
					C181.6,67.5,181.1,67.2,181.1,67.1L181.1,67.1z"/>
				<path fill="#DBB86C" d="M183.4,77c0,0,0.3-0.6,1.1-1.1c0.4-0.3,0.9-0.5,1.5-0.5c0.6-0.1,1.2-0.2,1.8-0.2c0.3,0,0.6,0,0.9,0
					c0.3,0.1,0.6,0.1,0.9,0.2c0.6,0.2,1.1,0.4,1.5,0.7c0.4,0.2,0.7,0.5,0.9,0.7c0.2,0.2,0.3,0.3,0.3,0.3l0,0c0,0-0.1-0.1-0.4-0.2
					c-0.2-0.1-0.6-0.3-1-0.5c-0.4-0.2-0.9-0.4-1.4-0.6c-0.3-0.1-0.5-0.2-0.8-0.2c-0.3,0-0.6-0.1-0.9-0.2c-0.6-0.1-1.2,0-1.7,0.2
					c-0.3,0.1-0.5,0.3-0.7,0.4c-0.2,0.1-0.4,0.2-0.6,0.3C184,76.7,183.5,77.1,183.4,77L183.4,77z"/>
				<path fill="#DBB86C" d="M161.7,151.8c1.7,0,3.4-0.5,4.9-1.2c0.8-0.3,1.5-0.8,2.3-1.2c0.7-0.4,1.4-0.9,2.2-1.4l0,0l0,0
					c0.7-0.3,1.5-0.6,2.3-0.8c0.8-0.2,1.6-0.3,2.3-0.4c0.4,0,0.8,0,1.2,0c0.2,0,0.4,0,0.6,0.1c0.2,0,0.4,0,0.6,0.1
					c0.4,0.1,0.8,0.2,1.2,0.4c0.4,0.1,0.7,0.4,1.1,0.6l-0.1,0c1.1,0.3,2.3,0.5,3.5,0.7c1.2,0.2,2.3,0.3,3.5,0.3c0.6,0,1.2,0,1.8-0.1
					c0.6-0.1,1.2-0.1,1.7-0.3c0.3,0,0.6-0.1,0.8-0.2c0.3-0.1,0.6-0.2,0.8-0.3c0.3-0.1,0.5-0.2,0.8-0.4l0.7-0.5l0,0l-0.7,0.6
					c-0.2,0.2-0.5,0.3-0.8,0.5c-0.3,0.2-0.5,0.3-0.8,0.4c-0.3,0.1-0.6,0.2-0.9,0.3c-0.6,0.2-1.2,0.3-1.8,0.4
					c-0.6,0.1-1.2,0.1-1.8,0.1c-1.2,0-2.4-0.1-3.6-0.3c-1.2-0.2-2.4-0.4-3.5-0.8l0,0l0,0c-0.3-0.2-0.6-0.4-1-0.6
					c-0.3-0.2-0.7-0.3-1.1-0.4c-0.2-0.1-0.4-0.1-0.6-0.1c-0.2,0-0.4-0.1-0.6-0.1c-0.4-0.1-0.8-0.1-1.2-0.1c-1.6,0-3.1,0.5-4.5,1.3
					l0,0c-0.7,0.5-1.4,1.1-2.1,1.5c-0.7,0.5-1.5,0.9-2.3,1.2c-0.8,0.3-1.6,0.6-2.5,0.7C163.4,151.9,162.5,152,161.7,151.8
					L161.7,151.8z"/>
				<path fill="#DBB86C" d="M176.4,135.6l2.9,1.6l0,0l0,0l1.4,1.1l0.1,0.1l0,0.2v0c-0.1,0.3-0.1,0.5-0.4,0.8c-0.3,0.3-0.7,0.1-0.9,0
					c-0.4-0.3-0.8-0.5-1.3-0.7c-0.9-0.4-1.8-0.8-2.8-0.9c-1-0.2-1.9-0.1-2.9,0.1c-0.9,0.2-1.8,0.6-2.6,1l-0.6,0.3l0.1-0.6
					c0.1-0.7,0.4-1.3,0.9-1.9c0.5-0.5,1.1-0.8,1.6-1.2l0.1,0l0,0c0.9-0.2,1.6,0.2,2.2,0.4c0.3,0.1,0.7,0.2,1,0.2
					C175.7,135.9,176,135.8,176.4,135.6L176.4,135.6z M176.4,135.6c-0.3,0.2-0.6,0.4-1,0.5c-0.4,0.1-0.8,0-1.1-0.1
					c-0.7-0.1-1.4-0.4-2-0.2l0.1,0c-0.5,0.4-1.1,0.7-1.5,1.1c-0.4,0.4-0.6,1-0.8,1.6l-0.4-0.3c0.9-0.5,1.9-0.8,2.9-0.9
					c1-0.1,2-0.1,3,0.2c1,0.2,1.9,0.5,2.8,0.9c0.5,0.2,0.9,0.4,1.3,0.6c0.2,0.1,0.4,0.1,0.5,0c0.1-0.1,0.1-0.3,0.2-0.5l0.1,0.2
					l-1.3-1.2l0,0L176.4,135.6z"/>
			</g>
		</g>
		<g>
			<path fill="#E89D24" d="M179.4,43.2c-3.7-1.7-7.4-1.5-11.2-1.4c-5.9,0.2-11.7,0.6-17.4,2.4c-1.3,0.4-2.5,1.1-3.9,1.8
				c-0.1-0.3-0.4-0.8-0.6-1.3c-3-6.8-6-13.6-9-20.3c-0.2-0.5-0.8-1-1.3-1.1c-1.3-0.4-2-1.4-1.6-2.6c0.3-1,1.5-1.5,2.5-1.1
				c1.1,0.5,1.4,1.6,0.9,2.8c-0.1,0.2-0.2,0.4-0.4,0.7c3.4,3.5,7,6.8,11.5,8.8c3.4,1.4,5.3,0.6,6.9-2.7c2.1-4.4,2.7-9.2,3.4-14
				c0.2-1.5,0.3-3.1,0.5-4.6c0.1-1,0.2-1.8-0.8-2.6c-0.7-0.6-0.6-1.6,0.2-2.2c0.8-0.7,1.6-0.7,2.3,0.1c0.7,0.7,0.8,1.7,0,2.2
				c-1.1,0.7-0.7,1.5-0.5,2.3c1.7,5,3.3,10,5.2,14.9c0.6,1.6,1.8,3,2.8,4.3c1.2,1.4,2.7,1.6,4.4,1c2.9-1.1,5-3.3,7-5.5
				c1.6-1.8,3.1-3.8,4.5-5.6c-0.4-0.8-0.8-1.3-0.9-1.9c-0.2-1,0.2-1.8,1.2-2.1c1-0.3,2,0,2.4,1.2c0.3,1,0.1,2-0.9,2.3
				c-1.1,0.3-1.3,1-1.5,1.9c-1.8,7.1-3.7,14.1-5.5,21.2C179.7,42.3,179.5,42.7,179.4,43.2 M162.4,34.8c-0.2,0-0.4,0-0.6,0.1
				c-0.3,0.6-0.9,1.2-0.8,1.7c0.1,0.5,0.9,1.1,1.4,1.1c0.9,0.1,1.4-0.7,1.2-1.5C163.4,35.7,162.8,35.3,162.4,34.8"/>
			<path fill="#E89D24" d="M147.5,48.8c-0.7-0.8-0.2-1.5,0.6-2.2c2-1.5,4.5-2,6.9-2.4c6.1-1,12.3-1.6,18.5-1.2
				c1.7,0.1,3.3,0.6,5,1.1c1.1,0.3,1.4,1.1,0.7,2.2c-3.3-1.8-7-1.6-10.5-1.6c-5.5,0.1-10.9,0.5-16.2,2
				C150.7,47.1,149.2,48.1,147.5,48.8"/>
			<path fill="#E89D24" d="M153.8,30.5c-0.9,1.3-1.5,1.5-3.2,1.1c-0.7-0.2-1.3-0.5-1.9-0.7c-0.8-0.3-1.1-0.8-0.9-1.8
				c0.3-2.1,0.4-4.2,0.4-6.3c0-1.1,0.2-2.2-1.1-3c-0.7-0.4-0.6-1.4,0-2.1c0.7-0.7,1.6-0.9,2.2-0.1c0.4,0.5,0.6,1.8,0.3,2
				c-1,0.9-0.6,1.7-0.2,2.5C150.8,24.8,152.2,27.5,153.8,30.5"/>
			<path fill="#E89D24" d="M172,30.2c-1.8,0-3-1.8-2.4-3.4c0.9-2.5,1.6-5,2.4-7.6c0.1-0.4-0.1-1-0.4-1.3c-0.7-0.9-0.8-1.7,0-2.5
				c0.6-0.7,1.9-0.6,2.3,0.2c0.6,0.9,0.5,1.7-0.4,2.5c-0.3,0.3-0.6,0.8-0.5,1.2c0.6,2.8,1.3,5.6,1.9,8.4c0.1,0.4-0.1,1-0.4,1.2
				C173.7,29.4,172.8,29.7,172,30.2"/>
			<path fill="#982231" d="M162.3,34.4c0.5,0.7,1.3,1.3,1.4,2c0.2,1.1-0.6,2.1-1.7,1.9c-0.7-0.1-1.7-1-1.7-1.7
				c-0.1-0.7,0.8-1.5,1.2-2.2H162.3z"/>
		</g>
	</g>
	<g>
		<g>
			<path fill="#E4AD2A" d="M143.4,273.3v-15.9h8.3c3,0,4.5,1.9,4.5,4c0,2-1.2,3.3-2.7,3.6c1.7,0.3,3,1.9,3,3.9
				c0,2.4-1.5,4.3-4.6,4.3H143.4z M152.8,262c0-1-0.7-1.7-1.8-1.7h-4.2v3.3h4.2C152,263.7,152.8,263,152.8,262 M153.1,268.5
				c0-1-0.7-1.8-2-1.8h-4.3v3.6h4.3C152.3,270.3,153.1,269.6,153.1,268.5"/>
			<path fill="#E4AD2A" d="M158.6,258.7c0-1,0.8-1.8,1.8-1.8c1,0,1.8,0.8,1.8,1.8c0,1-0.8,1.8-1.8,1.8
				C159.4,260.5,158.6,259.7,158.6,258.7 M158.9,261.8h3v11.5h-3V261.8z"/>
			<path fill="#E4AD2A" d="M164.1,267.5c0-3.3,2.4-6,5.9-6c3.4,0,5.7,2.6,5.7,6.3v0.7h-8.4c0.2,1.4,1.3,2.6,3.3,2.6
				c1,0,2.3-0.4,3-1.1l1.3,2c-1.1,1.1-2.9,1.6-4.7,1.6C166.8,273.6,164.1,271.2,164.1,267.5 M170,264c-1.9,0-2.7,1.3-2.8,2.5h5.6
				C172.7,265.3,172,264,170,264"/>
			<path fill="#E4AD2A" d="M177.9,273.3v-11.5h3v1.5c0.8-1,2.2-1.8,3.6-1.8v3c-0.2,0-0.5-0.1-0.8-0.1c-1,0-2.3,0.6-2.8,1.3v7.6
				H177.9z"/>
		</g>
		<g>
			<g>
				<path fill="#E4AD2A" d="M129.3,273.4c-4,0-7.3-3.3-7.3-7.3c0-4,3.3-7.3,7.3-7.3c4,0,7.3,3.3,7.3,7.3
					C136.6,270.2,133.3,273.4,129.3,273.4z M129.3,259.4c-3.7,0-6.7,3-6.7,6.7c0,3.7,3,6.7,6.7,6.7c3.7,0,6.7-3,6.7-6.7
					C136.1,262.5,133,259.4,129.3,259.4z"/>
				<path fill="#E4AD2A" d="M129.1,262.4c0,0,0.1,0.6,0.2,0.9l0,0c0.2-0.4,0.5-0.7,0.8-0.8c-0.3-0.8-0.9-1-0.9-1s-0.6,0.3-0.9,1
					c0.3,0.2,0.5,0.4,0.8,0.8C129,263.1,129,262.8,129.1,262.4"/>
				<path fill="#E4AD2A" d="M129.9,263.6c0.3,0.2,0.6,0.5,0.8,1c0.2-0.4,0.3-0.8,0.3-0.8c0.1,0.4,0,0.8-0.1,1
					c0.3-0.2,0.6-0.3,0.8-0.3c0.1-1.2-0.8-1.7-0.8-1.7S130.3,262.9,129.9,263.6"/>
				<path fill="#E4AD2A" d="M127.5,263.8c0,0,0.1,0.4,0.3,0.8c0.2-0.5,0.5-0.8,0.8-1c-0.4-0.7-1.1-0.8-1.1-0.8s-0.8,0.6-0.7,1.8
					c0.2,0,0.5,0.1,0.8,0.3C127.5,264.6,127.4,264.2,127.5,263.8"/>
				<path fill="#E4AD2A" d="M128.3,265.4c0.1,0.2,0.3,0.4,0.4,0.6c0.1,0.2,0.2,0.4,0.2,0.6c0.1,0,0.1-0.1,0.1-0.1l0.1-0.1
					c0-0.2,0.1-0.8,0.1-1.4c0,0,0.2,0.7,0.2,1.4l0.1,0.1c0,0,0.1,0,0.1,0.1c0-0.2,0.1-0.4,0.2-0.6c0.1-0.2,0.3-0.5,0.4-0.6
					c-0.2-1.1-1-1.5-1-1.5S128.4,264.3,128.3,265.4"/>
				<path fill="#E4AD2A" d="M130.5,266.2c-0.1,0.3-0.2,0.5-0.2,0.7c0.2,0.1,0.4,0.3,0.5,0.5c0.2-0.2,0.6-0.5,0.7-0.9
					c0,0-0.1,0.5-0.4,0.9c0.5-0.1,0.9-0.2,1.2-0.3c0,0,0,0,0,0c0.6-1.2-0.2-2.1-0.2-2.1S131.1,265,130.5,266.2"/>
				<path fill="#E4AD2A" d="M127.1,266.5c0.1,0.4,0.5,0.7,0.8,0.9c0.2-0.2,0.4-0.4,0.5-0.5c0-0.2-0.1-0.5-0.2-0.7
					c-0.6-1.2-1.8-1.2-1.8-1.2s-0.7,0.9-0.1,2.1c0,0,0,0,0,0c0.3,0,0.7,0.1,1.2,0.2C127.2,267.1,127.1,266.5,127.1,266.5"/>
				<path fill="#E4AD2A" d="M125.8,267.8c0,0,0.2,2.6,2.8,3c0.2,0,0.7,0.1,0.8,0c3.3-0.1,3.4-3.2,3.4-3.2s-1.1,0-2.1,0.5
					c-0.4-0.8-1.4-1.2-1.4-1.2s-0.9,0.4-1.3,1.2C126.9,267.8,125.8,267.8,125.8,267.8"/>
			</g>
			<g>
				<path fill="#E4AD2A" d="M197.3,273.4c-4,0-7.3-3.3-7.3-7.3c0-4,3.3-7.3,7.3-7.3c4,0,7.3,3.3,7.3,7.3
					C204.6,270.2,201.3,273.4,197.3,273.4z M197.3,259.4c-3.7,0-6.7,3-6.7,6.7c0,3.7,3,6.7,6.7,6.7c3.7,0,6.7-3,6.7-6.7
					C204,262.5,201,259.4,197.3,259.4z"/>
				<path fill="#E4AD2A" d="M197.1,262.4c0,0,0.1,0.6,0.2,0.9l0,0c0.2-0.4,0.5-0.7,0.8-0.8c-0.3-0.8-0.9-1-0.9-1s-0.6,0.3-0.9,1
					c0.3,0.2,0.5,0.4,0.8,0.8C197,263.1,197,262.8,197.1,262.4"/>
				<path fill="#E4AD2A" d="M197.9,263.6c0.3,0.2,0.6,0.5,0.8,1c0.2-0.4,0.3-0.8,0.3-0.8c0.1,0.4,0,0.8-0.1,1
					c0.3-0.2,0.6-0.3,0.8-0.3c0.1-1.2-0.8-1.7-0.8-1.7S198.3,262.9,197.9,263.6"/>
				<path fill="#E4AD2A" d="M195.5,263.8c0,0,0.1,0.4,0.3,0.8c0.2-0.5,0.5-0.8,0.8-1c-0.4-0.7-1.1-0.8-1.1-0.8s-0.8,0.6-0.7,1.8
					c0.2,0,0.5,0.1,0.8,0.3C195.5,264.6,195.4,264.2,195.5,263.8"/>
				<path fill="#E4AD2A" d="M196.2,265.4c0.1,0.2,0.3,0.4,0.4,0.6c0.1,0.2,0.2,0.4,0.2,0.6c0.1,0,0.1-0.1,0.1-0.1l0.1-0.1
					c0-0.2,0.1-0.8,0.1-1.4c0,0,0.2,0.7,0.2,1.4l0.1,0.1c0,0,0.1,0,0.1,0.1c0-0.2,0.1-0.4,0.2-0.6c0.1-0.2,0.3-0.5,0.4-0.6
					c-0.2-1.1-1-1.5-1-1.5S196.4,264.3,196.2,265.4"/>
				<path fill="#E4AD2A" d="M198.4,266.2c-0.1,0.3-0.2,0.5-0.2,0.7c0.2,0.1,0.4,0.3,0.5,0.5c0.2-0.2,0.6-0.5,0.7-0.9
					c0,0-0.1,0.5-0.4,0.9c0.5-0.1,0.9-0.2,1.2-0.3c0,0,0,0,0,0c0.6-1.2-0.2-2.1-0.2-2.1S199,265,198.4,266.2"/>
				<path fill="#E4AD2A" d="M195.1,266.5c0.1,0.4,0.5,0.7,0.8,0.9c0.2-0.2,0.4-0.4,0.5-0.5c0-0.2-0.1-0.5-0.2-0.7
					c-0.6-1.2-1.8-1.2-1.8-1.2s-0.7,0.9-0.1,2.1c0,0,0,0,0,0c0.3,0,0.7,0.1,1.2,0.2C195.2,267.1,195.1,266.5,195.1,266.5"/>
				<path fill="#E4AD2A" d="M193.8,267.8c0,0,0.2,2.6,2.8,3c0.2,0,0.7,0.1,0.8,0c3.3-0.1,3.4-3.2,3.4-3.2s-1.1,0-2.1,0.5
					c-0.4-0.8-1.4-1.2-1.4-1.2s-0.9,0.4-1.3,1.2C194.9,267.8,193.8,267.8,193.8,267.8"/>
			</g>
		</g>
	</g>
</g>
</svg>
